<svg width="562" height="261" viewBox="0 0 562 261" fill="none" xmlns="http://www.w3.org/2000/svg">
<path d="M29.1388 258V253.25L29.4483 253.588H28.0017V252.962H29.8513V258H29.1388ZM32.587 252.905C33.0428 252.905 33.4267 253.003 33.7385 253.2C34.0552 253.396 34.2951 253.682 34.4582 254.056C34.6214 254.426 34.7029 254.879 34.7029 255.416C34.7029 255.987 34.6022 256.469 34.4007 256.863C34.1991 257.256 33.9209 257.554 33.5658 257.755C33.2108 257.957 32.7957 258.058 32.3207 258.058C32.0856 258.058 31.8577 258.034 31.637 257.986C31.4211 257.938 31.2316 257.863 31.0685 257.762L31.3419 257.201C31.4763 257.287 31.625 257.35 31.7882 257.388C31.9561 257.422 32.1312 257.439 32.3135 257.439C32.8221 257.439 33.2276 257.28 33.5298 256.964C33.8321 256.642 33.9832 256.167 33.9832 255.539C33.9832 255.438 33.9784 255.318 33.9688 255.179C33.9592 255.04 33.9377 254.903 33.9041 254.769L34.1416 255.013C34.0744 255.234 33.9616 255.421 33.8033 255.575C33.6498 255.723 33.4627 255.836 33.2419 255.913C33.026 255.985 32.7885 256.021 32.5294 256.021C32.1984 256.021 31.9033 255.958 31.6442 255.834C31.3851 255.709 31.1812 255.534 31.0325 255.308C30.8837 255.078 30.8094 254.807 30.8094 254.495C30.8094 254.169 30.8861 253.888 31.0397 253.653C31.198 253.413 31.4115 253.228 31.6802 253.099C31.9537 252.969 32.256 252.905 32.587 252.905ZM32.6158 253.487C32.3999 253.487 32.208 253.528 32.0401 253.61C31.8721 253.691 31.7402 253.804 31.6442 253.948C31.5531 254.092 31.5075 254.265 31.5075 254.466C31.5075 254.764 31.6106 255.001 31.8169 255.179C32.0233 255.352 32.3015 255.438 32.6518 255.438C32.8821 255.438 33.0836 255.395 33.2563 255.308C33.4339 255.222 33.5706 255.104 33.6666 254.956C33.7673 254.807 33.8177 254.641 33.8177 254.459C33.8177 254.282 33.7721 254.121 33.681 253.977C33.5898 253.833 33.4555 253.715 33.2779 253.624C33.1004 253.533 32.8797 253.487 32.6158 253.487ZM35.7859 258.043C35.6515 258.043 35.5364 257.998 35.4404 257.906C35.3444 257.81 35.2965 257.691 35.2965 257.547C35.2965 257.403 35.3444 257.285 35.4404 257.194C35.5364 257.103 35.6515 257.057 35.7859 257.057C35.9154 257.057 36.0258 257.103 36.1169 257.194C36.2129 257.285 36.2609 257.403 36.2609 257.547C36.2609 257.691 36.2129 257.81 36.1169 257.906C36.0258 257.998 35.9154 258.043 35.7859 258.043ZM39.9322 258.058C39.6347 258.058 39.3564 257.995 39.0973 257.87C38.8382 257.746 38.6271 257.566 38.464 257.331L38.8814 256.841C39.0205 257.033 39.1765 257.182 39.3492 257.287C39.5267 257.388 39.721 257.439 39.9322 257.439C40.5079 257.439 40.7958 257.098 40.7958 256.417V253.588H38.975V252.962H41.5083V256.381C41.5083 256.942 41.3739 257.362 41.1053 257.64C40.8414 257.918 40.4503 258.058 39.9322 258.058ZM45.2413 258V257.194L45.2053 257.043V255.668C45.2053 255.376 45.119 255.15 44.9462 254.992C44.7783 254.829 44.524 254.747 44.1834 254.747C43.9579 254.747 43.7372 254.785 43.5212 254.862C43.3053 254.934 43.123 255.032 42.9743 255.157L42.6864 254.639C42.8831 254.481 43.1182 254.361 43.3917 254.279C43.67 254.193 43.9603 254.15 44.2625 254.15C44.7855 254.15 45.1885 254.277 45.4716 254.531C45.7547 254.785 45.8962 255.174 45.8962 255.697V258H45.2413ZM43.9891 258.043C43.706 258.043 43.4565 257.995 43.2406 257.899C43.0295 257.803 42.8663 257.671 42.7512 257.503C42.636 257.331 42.5784 257.136 42.5784 256.92C42.5784 256.714 42.6264 256.527 42.7224 256.359C42.8231 256.191 42.9839 256.057 43.2046 255.956C43.4301 255.855 43.7324 255.805 44.1114 255.805H45.3205V256.302H44.1402C43.7947 256.302 43.562 256.359 43.4421 256.474C43.3221 256.589 43.2622 256.729 43.2622 256.892C43.2622 257.079 43.3365 257.23 43.4853 257.345C43.634 257.455 43.8403 257.511 44.1042 257.511C44.3633 257.511 44.5888 257.453 44.7807 257.338C44.9774 257.223 45.119 257.055 45.2053 256.834L45.3421 257.309C45.2509 257.535 45.0902 257.715 44.8599 257.849C44.6296 257.978 44.3393 258.043 43.9891 258.043ZM49.2116 254.15C49.5234 254.15 49.7969 254.21 50.032 254.33C50.2719 254.449 50.4591 254.632 50.5934 254.877C50.7277 255.121 50.7949 255.431 50.7949 255.805V258H50.104V255.884C50.104 255.515 50.0128 255.236 49.8305 255.049C49.653 254.862 49.4011 254.769 49.0748 254.769C48.8301 254.769 48.6166 254.817 48.4343 254.912C48.252 255.008 48.1104 255.15 48.0097 255.337C47.9137 255.524 47.8657 255.757 47.8657 256.035V258H47.1748V254.186H47.837V255.215L47.729 254.941C47.8537 254.692 48.0457 254.497 48.3048 254.358C48.5639 254.219 48.8661 254.15 49.2116 254.15Z" fill="#3E4954"/>
<path d="M75.3431 258V253.25L75.6525 253.588H74.2059V252.962H76.0556V258H75.3431ZM78.7912 252.905C79.2471 252.905 79.6309 253.003 79.9428 253.2C80.2594 253.396 80.4993 253.682 80.6625 254.056C80.8256 254.426 80.9072 254.879 80.9072 255.416C80.9072 255.987 80.8064 256.469 80.6049 256.863C80.4034 257.256 80.1251 257.554 79.77 257.755C79.415 257.957 79 258.058 78.525 258.058C78.2899 258.058 78.062 258.034 77.8412 257.986C77.6253 257.938 77.4358 257.863 77.2727 257.762L77.5462 257.201C77.6805 257.287 77.8292 257.35 77.9924 257.388C78.1603 257.422 78.3354 257.439 78.5178 257.439C79.0263 257.439 79.4318 257.28 79.734 256.964C80.0363 256.642 80.1875 256.167 80.1875 255.539C80.1875 255.438 80.1827 255.318 80.1731 255.179C80.1635 255.04 80.1419 254.903 80.1083 254.769L80.3458 255.013C80.2786 255.234 80.1659 255.421 80.0075 255.575C79.854 255.723 79.6669 255.836 79.4462 255.913C79.2303 255.985 78.9928 256.021 78.7337 256.021C78.4026 256.021 78.1075 255.958 77.8484 255.834C77.5893 255.709 77.3854 255.534 77.2367 255.308C77.088 255.078 77.0136 254.807 77.0136 254.495C77.0136 254.169 77.0904 253.888 77.2439 253.653C77.4022 253.413 77.6157 253.228 77.8844 253.099C78.1579 252.969 78.4602 252.905 78.7912 252.905ZM78.82 253.487C78.6041 253.487 78.4122 253.528 78.2443 253.61C78.0763 253.691 77.9444 253.804 77.8484 253.948C77.7573 254.092 77.7117 254.265 77.7117 254.466C77.7117 254.764 77.8149 255.001 78.0212 255.179C78.2275 255.352 78.5058 255.438 78.856 255.438C79.0863 255.438 79.2878 255.395 79.4606 255.308C79.6381 255.222 79.7748 255.104 79.8708 254.956C79.9715 254.807 80.0219 254.641 80.0219 254.459C80.0219 254.282 79.9763 254.121 79.8852 253.977C79.794 253.833 79.6597 253.715 79.4822 253.624C79.3046 253.533 79.0839 253.487 78.82 253.487ZM81.9901 258.043C81.8557 258.043 81.7406 257.998 81.6446 257.906C81.5487 257.81 81.5007 257.691 81.5007 257.547C81.5007 257.403 81.5487 257.285 81.6446 257.194C81.7406 257.103 81.8557 257.057 81.9901 257.057C82.1196 257.057 82.23 257.103 82.3211 257.194C82.4171 257.285 82.4651 257.403 82.4651 257.547C82.4651 257.691 82.4171 257.81 82.3211 257.906C82.23 257.998 82.1196 258.043 81.9901 258.043ZM86.1364 255.344H88.7345V255.963H86.1364V255.344ZM86.2083 258H85.4886V252.962H89.0439V253.588H86.2083V258ZM91.5353 258.043C91.1275 258.043 90.7676 257.959 90.4557 257.791C90.1487 257.623 89.9088 257.393 89.736 257.1C89.5681 256.808 89.4841 256.472 89.4841 256.093C89.4841 255.714 89.5657 255.378 89.7288 255.085C89.8968 254.793 90.1247 254.565 90.4126 254.402C90.7052 254.234 91.0339 254.15 91.3985 254.15C91.768 254.15 92.0942 254.231 92.3773 254.394C92.6604 254.557 92.8811 254.788 93.0394 255.085C93.2026 255.378 93.2841 255.721 93.2841 256.114C93.2841 256.143 93.2817 256.177 93.2769 256.215C93.2769 256.254 93.2745 256.29 93.2697 256.323H90.0239V255.827H92.9099L92.6292 255.999C92.634 255.755 92.5836 255.536 92.4781 255.344C92.3725 255.152 92.2262 255.004 92.0391 254.898C91.8567 254.788 91.6432 254.733 91.3985 254.733C91.1586 254.733 90.9451 254.788 90.758 254.898C90.5709 255.004 90.4245 255.155 90.319 255.352C90.2134 255.543 90.1607 255.764 90.1607 256.014V256.129C90.1607 256.383 90.2182 256.611 90.3334 256.812C90.4533 257.009 90.6189 257.163 90.83 257.273C91.0411 257.383 91.2834 257.439 91.5569 257.439C91.7824 257.439 91.9863 257.4 92.1686 257.323C92.3557 257.247 92.5189 257.132 92.658 256.978L93.0394 257.424C92.8667 257.626 92.6508 257.779 92.3917 257.885C92.1374 257.99 91.8519 258.043 91.5353 258.043ZM96.2659 258.043C95.9396 258.043 95.6445 257.971 95.3807 257.827C95.1216 257.679 94.9153 257.46 94.7617 257.172C94.613 256.884 94.5386 256.525 94.5386 256.093C94.5386 255.661 94.6154 255.301 94.7689 255.013C94.9272 254.725 95.136 254.509 95.395 254.366C95.6589 254.222 95.9492 254.15 96.2659 254.15C96.6401 254.15 96.9712 254.231 97.2591 254.394C97.5469 254.557 97.7748 254.785 97.9428 255.078C98.1107 255.366 98.1947 255.704 98.1947 256.093C98.1947 256.481 98.1107 256.822 97.9428 257.115C97.7748 257.407 97.5469 257.635 97.2591 257.798C96.9712 257.962 96.6401 258.043 96.2659 258.043ZM94.2435 258V252.66H94.9344V255.2L94.8625 256.086L94.9057 256.971V258H94.2435ZM96.2083 257.439C96.453 257.439 96.6713 257.383 96.8632 257.273C97.0599 257.163 97.2135 257.007 97.3238 256.805C97.439 256.599 97.4966 256.361 97.4966 256.093C97.4966 255.819 97.439 255.584 97.3238 255.387C97.2135 255.186 97.0599 255.03 96.8632 254.92C96.6713 254.809 96.453 254.754 96.2083 254.754C95.9684 254.754 95.7501 254.809 95.5534 254.92C95.3615 255.03 95.2079 255.186 95.0928 255.387C94.9824 255.584 94.9272 255.819 94.9272 256.093C94.9272 256.361 94.9824 256.599 95.0928 256.805C95.2079 257.007 95.3615 257.163 95.5534 257.273C95.7501 257.383 95.9684 257.439 96.2083 257.439Z" fill="#3E4954"/>
<path d="M122.336 258V253.25L122.646 253.588H121.199V252.962H123.049V258H122.336ZM125.785 252.905C126.24 252.905 126.624 253.003 126.936 253.2C127.253 253.396 127.493 253.682 127.656 254.056C127.819 254.426 127.9 254.879 127.9 255.416C127.9 255.987 127.8 256.469 127.598 256.863C127.397 257.256 127.118 257.554 126.763 257.755C126.408 257.957 125.993 258.058 125.518 258.058C125.283 258.058 125.055 258.034 124.835 257.986C124.619 257.938 124.429 257.863 124.266 257.762L124.539 257.201C124.674 257.287 124.823 257.35 124.986 257.388C125.154 257.422 125.329 257.439 125.511 257.439C126.02 257.439 126.425 257.28 126.727 256.964C127.03 256.642 127.181 256.167 127.181 255.539C127.181 255.438 127.176 255.318 127.166 255.179C127.157 255.04 127.135 254.903 127.102 254.769L127.339 255.013C127.272 255.234 127.159 255.421 127.001 255.575C126.847 255.723 126.66 255.836 126.439 255.913C126.224 255.985 125.986 256.021 125.727 256.021C125.396 256.021 125.101 255.958 124.842 255.834C124.583 255.709 124.379 255.534 124.23 255.308C124.081 255.078 124.007 254.807 124.007 254.495C124.007 254.169 124.084 253.888 124.237 253.653C124.396 253.413 124.609 253.228 124.878 253.099C125.151 252.969 125.453 252.905 125.785 252.905ZM125.813 253.487C125.597 253.487 125.405 253.528 125.238 253.61C125.07 253.691 124.938 253.804 124.842 253.948C124.751 254.092 124.705 254.265 124.705 254.466C124.705 254.764 124.808 255.001 125.014 255.179C125.221 255.352 125.499 255.438 125.849 255.438C126.08 255.438 126.281 255.395 126.454 255.308C126.631 255.222 126.768 255.104 126.864 254.956C126.965 254.807 127.015 254.641 127.015 254.459C127.015 254.282 126.97 254.121 126.878 253.977C126.787 253.833 126.653 253.715 126.475 253.624C126.298 253.533 126.077 253.487 125.813 253.487ZM128.983 258.043C128.849 258.043 128.734 257.998 128.638 257.906C128.542 257.81 128.494 257.691 128.494 257.547C128.494 257.403 128.542 257.285 128.638 257.194C128.734 257.103 128.849 257.057 128.983 257.057C129.113 257.057 129.223 257.103 129.314 257.194C129.41 257.285 129.458 257.403 129.458 257.547C129.458 257.691 129.41 257.81 129.314 257.906C129.223 257.998 129.113 258.043 128.983 258.043ZM132.482 258V252.962H133.072L135.332 256.769H135.015L137.246 252.962H137.836L137.844 258H137.153L137.146 254.049H137.311L135.325 257.388H134.994L132.993 254.049H133.173V258H132.482ZM141.623 258V257.194L141.587 257.043V255.668C141.587 255.376 141.5 255.15 141.328 254.992C141.16 254.829 140.905 254.747 140.565 254.747C140.339 254.747 140.118 254.785 139.903 254.862C139.687 254.934 139.504 255.032 139.356 255.157L139.068 254.639C139.264 254.481 139.5 254.361 139.773 254.279C140.051 254.193 140.342 254.15 140.644 254.15C141.167 254.15 141.57 254.277 141.853 254.531C142.136 254.785 142.278 255.174 142.278 255.697V258H141.623ZM140.37 258.043C140.087 258.043 139.838 257.995 139.622 257.899C139.411 257.803 139.248 257.671 139.132 257.503C139.017 257.331 138.96 257.136 138.96 256.92C138.96 256.714 139.008 256.527 139.104 256.359C139.204 256.191 139.365 256.057 139.586 255.956C139.811 255.855 140.114 255.805 140.493 255.805H141.702V256.302H140.522C140.176 256.302 139.943 256.359 139.823 256.474C139.703 256.589 139.643 256.729 139.643 256.892C139.643 257.079 139.718 257.23 139.867 257.345C140.015 257.455 140.222 257.511 140.486 257.511C140.745 257.511 140.97 257.453 141.162 257.338C141.359 257.223 141.5 257.055 141.587 256.834L141.723 257.309C141.632 257.535 141.472 257.715 141.241 257.849C141.011 257.978 140.721 258.043 140.37 258.043ZM143.556 258V254.186H144.218V255.222L144.154 254.963C144.259 254.699 144.437 254.497 144.686 254.358C144.936 254.219 145.243 254.15 145.607 254.15V254.819C145.579 254.814 145.55 254.812 145.521 254.812C145.497 254.812 145.473 254.812 145.449 254.812C145.08 254.812 144.787 254.922 144.571 255.143C144.355 255.364 144.247 255.683 144.247 256.1V258H143.556Z" fill="#3E4954"/>
<path d="M170.547 258V253.25L170.857 253.588H169.41V252.962H171.26V258H170.547ZM173.996 252.905C174.451 252.905 174.835 253.003 175.147 253.2C175.464 253.396 175.704 253.682 175.867 254.056C176.03 254.426 176.112 254.879 176.112 255.416C176.112 255.987 176.011 256.469 175.809 256.863C175.608 257.256 175.329 257.554 174.974 257.755C174.619 257.957 174.204 258.058 173.729 258.058C173.494 258.058 173.266 258.034 173.046 257.986C172.83 257.938 172.64 257.863 172.477 257.762L172.751 257.201C172.885 257.287 173.034 257.35 173.197 257.388C173.365 257.422 173.54 257.439 173.722 257.439C174.231 257.439 174.636 257.28 174.938 256.964C175.241 256.642 175.392 256.167 175.392 255.539C175.392 255.438 175.387 255.318 175.377 255.179C175.368 255.04 175.346 254.903 175.313 254.769L175.55 255.013C175.483 255.234 175.37 255.421 175.212 255.575C175.058 255.723 174.871 255.836 174.651 255.913C174.435 255.985 174.197 256.021 173.938 256.021C173.607 256.021 173.312 255.958 173.053 255.834C172.794 255.709 172.59 255.534 172.441 255.308C172.292 255.078 172.218 254.807 172.218 254.495C172.218 254.169 172.295 253.888 172.448 253.653C172.607 253.413 172.82 253.228 173.089 253.099C173.362 252.969 173.665 252.905 173.996 252.905ZM174.024 253.487C173.808 253.487 173.617 253.528 173.449 253.61C173.281 253.691 173.149 253.804 173.053 253.948C172.962 254.092 172.916 254.265 172.916 254.466C172.916 254.764 173.019 255.001 173.226 255.179C173.432 255.352 173.71 255.438 174.06 255.438C174.291 255.438 174.492 255.395 174.665 255.308C174.842 255.222 174.979 255.104 175.075 254.956C175.176 254.807 175.226 254.641 175.226 254.459C175.226 254.282 175.181 254.121 175.09 253.977C174.998 253.833 174.864 253.715 174.687 253.624C174.509 253.533 174.288 253.487 174.024 253.487ZM177.194 258.043C177.06 258.043 176.945 257.998 176.849 257.906C176.753 257.81 176.705 257.691 176.705 257.547C176.705 257.403 176.753 257.285 176.849 257.194C176.945 257.103 177.06 257.057 177.194 257.057C177.324 257.057 177.434 257.103 177.526 257.194C177.621 257.285 177.669 257.403 177.669 257.547C177.669 257.691 177.621 257.81 177.526 257.906C177.434 257.998 177.324 258.043 177.194 258.043ZM179.93 258L182.212 252.962H182.924L185.213 258H184.457L182.42 253.365H182.708L180.671 258H179.93ZM180.902 256.741L181.096 256.165H183.932L184.14 256.741H180.902ZM187.886 258.043C187.569 258.043 187.279 257.971 187.015 257.827C186.756 257.679 186.547 257.46 186.389 257.172C186.235 256.884 186.159 256.525 186.159 256.093C186.159 255.661 186.233 255.301 186.382 255.013C186.535 254.725 186.742 254.509 187.001 254.366C187.264 254.222 187.56 254.15 187.886 254.15C188.26 254.15 188.591 254.231 188.879 254.394C189.167 254.557 189.395 254.785 189.563 255.078C189.731 255.366 189.815 255.704 189.815 256.093C189.815 256.481 189.731 256.822 189.563 257.115C189.395 257.407 189.167 257.635 188.879 257.798C188.591 257.962 188.26 258.043 187.886 258.043ZM185.863 259.396V254.186H186.526V255.215L186.482 256.1L186.554 256.985V259.396H185.863ZM187.828 257.439C188.073 257.439 188.291 257.383 188.483 257.273C188.68 257.163 188.833 257.007 188.944 256.805C189.059 256.599 189.117 256.361 189.117 256.093C189.117 255.819 189.059 255.584 188.944 255.387C188.833 255.186 188.68 255.03 188.483 254.92C188.291 254.809 188.073 254.754 187.828 254.754C187.588 254.754 187.37 254.809 187.173 254.92C186.981 255.03 186.828 255.186 186.713 255.387C186.602 255.584 186.547 255.819 186.547 256.093C186.547 256.361 186.602 256.599 186.713 256.805C186.828 257.007 186.981 257.163 187.173 257.273C187.37 257.383 187.588 257.439 187.828 257.439ZM190.769 258V254.186H191.431V255.222L191.367 254.963C191.472 254.699 191.65 254.497 191.899 254.358C192.149 254.219 192.456 254.15 192.82 254.15V254.819C192.792 254.814 192.763 254.812 192.734 254.812C192.71 254.812 192.686 254.812 192.662 254.812C192.293 254.812 192 254.922 191.784 255.143C191.568 255.364 191.46 255.683 191.46 256.1V258H190.769Z" fill="#3E4954"/>
<path d="M218.095 258V253.25L218.404 253.588H216.957V252.962H218.807V258H218.095ZM221.543 252.905C221.999 252.905 222.382 253.003 222.694 253.2C223.011 253.396 223.251 253.682 223.414 254.056C223.577 254.426 223.659 254.879 223.659 255.416C223.659 255.987 223.558 256.469 223.356 256.863C223.155 257.256 222.877 257.554 222.521 257.755C222.166 257.957 221.751 258.058 221.276 258.058C221.041 258.058 220.813 258.034 220.593 257.986C220.377 257.938 220.187 257.863 220.024 257.762L220.298 257.201C220.432 257.287 220.581 257.35 220.744 257.388C220.912 257.422 221.087 257.439 221.269 257.439C221.778 257.439 222.183 257.28 222.485 256.964C222.788 256.642 222.939 256.167 222.939 255.539C222.939 255.438 222.934 255.318 222.925 255.179C222.915 255.04 222.893 254.903 222.86 254.769L223.097 255.013C223.03 255.234 222.917 255.421 222.759 255.575C222.605 255.723 222.418 255.836 222.198 255.913C221.982 255.985 221.744 256.021 221.485 256.021C221.154 256.021 220.859 255.958 220.6 255.834C220.341 255.709 220.137 255.534 219.988 255.308C219.839 255.078 219.765 254.807 219.765 254.495C219.765 254.169 219.842 253.888 219.995 253.653C220.154 253.413 220.367 253.228 220.636 253.099C220.909 252.969 221.212 252.905 221.543 252.905ZM221.571 253.487C221.356 253.487 221.164 253.528 220.996 253.61C220.828 253.691 220.696 253.804 220.6 253.948C220.509 254.092 220.463 254.265 220.463 254.466C220.463 254.764 220.566 255.001 220.773 255.179C220.979 255.352 221.257 255.438 221.607 255.438C221.838 255.438 222.039 255.395 222.212 255.308C222.39 255.222 222.526 255.104 222.622 254.956C222.723 254.807 222.773 254.641 222.773 254.459C222.773 254.282 222.728 254.121 222.637 253.977C222.545 253.833 222.411 253.715 222.234 253.624C222.056 253.533 221.835 253.487 221.571 253.487ZM224.742 258.043C224.607 258.043 224.492 257.998 224.396 257.906C224.3 257.81 224.252 257.691 224.252 257.547C224.252 257.403 224.3 257.285 224.396 257.194C224.492 257.103 224.607 257.057 224.742 257.057C224.871 257.057 224.981 257.103 225.073 257.194C225.169 257.285 225.217 257.403 225.217 257.547C225.217 257.691 225.169 257.81 225.073 257.906C224.981 257.998 224.871 258.043 224.742 258.043ZM228.888 258.058C228.59 258.058 228.312 257.995 228.053 257.87C227.794 257.746 227.583 257.566 227.42 257.331L227.837 256.841C227.976 257.033 228.132 257.182 228.305 257.287C228.482 257.388 228.677 257.439 228.888 257.439C229.464 257.439 229.751 257.098 229.751 256.417V253.588H227.931V252.962H230.464V256.381C230.464 256.942 230.33 257.362 230.061 257.64C229.797 257.918 229.406 258.058 228.888 258.058ZM233.434 258.043C233.108 258.043 232.82 257.983 232.57 257.863C232.326 257.743 232.134 257.561 231.995 257.316C231.86 257.067 231.793 256.755 231.793 256.381V254.186H232.484V256.302C232.484 256.676 232.573 256.956 232.75 257.144C232.933 257.331 233.187 257.424 233.513 257.424C233.753 257.424 233.962 257.376 234.139 257.28C234.317 257.18 234.454 257.036 234.55 256.848C234.646 256.657 234.694 256.426 234.694 256.158V254.186H235.384V258H234.73V256.971L234.838 257.244C234.713 257.499 234.526 257.695 234.276 257.834C234.027 257.974 233.746 258.043 233.434 258.043ZM238.737 254.15C239.048 254.15 239.322 254.21 239.557 254.33C239.797 254.449 239.984 254.632 240.118 254.877C240.253 255.121 240.32 255.431 240.32 255.805V258H239.629V255.884C239.629 255.515 239.538 255.236 239.355 255.049C239.178 254.862 238.926 254.769 238.6 254.769C238.355 254.769 238.142 254.817 237.959 254.912C237.777 255.008 237.635 255.15 237.535 255.337C237.439 255.524 237.391 255.757 237.391 256.035V258H236.7V254.186H237.362V255.215L237.254 254.941C237.379 254.692 237.571 254.497 237.83 254.358C238.089 254.219 238.391 254.15 238.737 254.15Z" fill="#3E4954"/>
<path d="M265.106 258V253.25L265.416 253.588H263.969V252.962H265.819V258H265.106ZM268.555 252.905C269.01 252.905 269.394 253.003 269.706 253.2C270.023 253.396 270.263 253.682 270.426 254.056C270.589 254.426 270.671 254.879 270.671 255.416C270.671 255.987 270.57 256.469 270.368 256.863C270.167 257.256 269.888 257.554 269.533 257.755C269.178 257.957 268.763 258.058 268.288 258.058C268.053 258.058 267.825 258.034 267.605 257.986C267.389 257.938 267.199 257.863 267.036 257.762L267.31 257.201C267.444 257.287 267.593 257.35 267.756 257.388C267.924 257.422 268.099 257.439 268.281 257.439C268.79 257.439 269.195 257.28 269.497 256.964C269.8 256.642 269.951 256.167 269.951 255.539C269.951 255.438 269.946 255.318 269.936 255.179C269.927 255.04 269.905 254.903 269.872 254.769L270.109 255.013C270.042 255.234 269.929 255.421 269.771 255.575C269.617 255.723 269.43 255.836 269.21 255.913C268.994 255.985 268.756 256.021 268.497 256.021C268.166 256.021 267.871 255.958 267.612 255.834C267.353 255.709 267.149 255.534 267 255.308C266.851 255.078 266.777 254.807 266.777 254.495C266.777 254.169 266.854 253.888 267.007 253.653C267.166 253.413 267.379 253.228 267.648 253.099C267.921 252.969 268.224 252.905 268.555 252.905ZM268.583 253.487C268.368 253.487 268.176 253.528 268.008 253.61C267.84 253.691 267.708 253.804 267.612 253.948C267.521 254.092 267.475 254.265 267.475 254.466C267.475 254.764 267.578 255.001 267.785 255.179C267.991 255.352 268.269 255.438 268.619 255.438C268.85 255.438 269.051 255.395 269.224 255.308C269.401 255.222 269.538 255.104 269.634 254.956C269.735 254.807 269.785 254.641 269.785 254.459C269.785 254.282 269.74 254.121 269.649 253.977C269.557 253.833 269.423 253.715 269.246 253.624C269.068 253.533 268.847 253.487 268.583 253.487ZM271.753 258.043C271.619 258.043 271.504 257.998 271.408 257.906C271.312 257.81 271.264 257.691 271.264 257.547C271.264 257.403 271.312 257.285 271.408 257.194C271.504 257.103 271.619 257.057 271.753 257.057C271.883 257.057 271.993 257.103 272.085 257.194C272.18 257.285 272.228 257.403 272.228 257.547C272.228 257.691 272.18 257.81 272.085 257.906C271.993 257.998 271.883 258.043 271.753 258.043ZM275.9 258.058C275.602 258.058 275.324 257.995 275.065 257.87C274.806 257.746 274.595 257.566 274.432 257.331L274.849 256.841C274.988 257.033 275.144 257.182 275.317 257.287C275.494 257.388 275.689 257.439 275.9 257.439C276.476 257.439 276.763 257.098 276.763 256.417V253.588H274.943V252.962H277.476V256.381C277.476 256.942 277.342 257.362 277.073 257.64C276.809 257.918 276.418 258.058 275.9 258.058ZM280.446 258.043C280.12 258.043 279.832 257.983 279.582 257.863C279.338 257.743 279.146 257.561 279.007 257.316C278.872 257.067 278.805 256.755 278.805 256.381V254.186H279.496V256.302C279.496 256.676 279.585 256.956 279.762 257.144C279.945 257.331 280.199 257.424 280.525 257.424C280.765 257.424 280.974 257.376 281.151 257.28C281.329 257.18 281.466 257.036 281.562 256.848C281.658 256.657 281.706 256.426 281.706 256.158V254.186H282.396V258H281.742V256.971L281.849 257.244C281.725 257.499 281.538 257.695 281.288 257.834C281.039 257.974 280.758 258.043 280.446 258.043ZM283.712 258V252.66H284.403V258H283.712Z" fill="#3E4954"/>
<path d="M308.976 258V253.25L309.285 253.588H307.838V252.962H309.688V258H308.976ZM312.424 252.905C312.88 252.905 313.263 253.003 313.575 253.2C313.892 253.396 314.132 253.682 314.295 254.056C314.458 254.426 314.54 254.879 314.54 255.416C314.54 255.987 314.439 256.469 314.237 256.863C314.036 257.256 313.758 257.554 313.403 257.755C313.047 257.957 312.632 258.058 312.157 258.058C311.922 258.058 311.694 258.034 311.474 257.986C311.258 257.938 311.068 257.863 310.905 257.762L311.179 257.201C311.313 257.287 311.462 257.35 311.625 257.388C311.793 257.422 311.968 257.439 312.15 257.439C312.659 257.439 313.064 257.28 313.367 256.964C313.669 256.642 313.82 256.167 313.82 255.539C313.82 255.438 313.815 255.318 313.806 255.179C313.796 255.04 313.774 254.903 313.741 254.769L313.978 255.013C313.911 255.234 313.798 255.421 313.64 255.575C313.486 255.723 313.299 255.836 313.079 255.913C312.863 255.985 312.625 256.021 312.366 256.021C312.035 256.021 311.74 255.958 311.481 255.834C311.222 255.709 311.018 255.534 310.869 255.308C310.72 255.078 310.646 254.807 310.646 254.495C310.646 254.169 310.723 253.888 310.876 253.653C311.035 253.413 311.248 253.228 311.517 253.099C311.79 252.969 312.093 252.905 312.424 252.905ZM312.453 253.487C312.237 253.487 312.045 253.528 311.877 253.61C311.709 253.691 311.577 253.804 311.481 253.948C311.39 254.092 311.344 254.265 311.344 254.466C311.344 254.764 311.447 255.001 311.654 255.179C311.86 255.352 312.138 255.438 312.488 255.438C312.719 255.438 312.92 255.395 313.093 255.308C313.271 255.222 313.407 255.104 313.503 254.956C313.604 254.807 313.654 254.641 313.654 254.459C313.654 254.282 313.609 254.121 313.518 253.977C313.427 253.833 313.292 253.715 313.115 253.624C312.937 253.533 312.716 253.487 312.453 253.487ZM315.623 258.043C315.488 258.043 315.373 257.998 315.277 257.906C315.181 257.81 315.133 257.691 315.133 257.547C315.133 257.403 315.181 257.285 315.277 257.194C315.373 257.103 315.488 257.057 315.623 257.057C315.752 257.057 315.862 257.103 315.954 257.194C316.05 257.285 316.098 257.403 316.098 257.547C316.098 257.691 316.05 257.81 315.954 257.906C315.862 257.998 315.752 258.043 315.623 258.043ZM318.358 258L320.64 252.962H321.352L323.641 258H322.885L320.848 253.365H321.136L319.1 258H318.358ZM319.33 256.741L319.524 256.165H322.36L322.568 256.741H319.33ZM325.826 258.043C325.5 258.043 325.212 257.983 324.963 257.863C324.718 257.743 324.526 257.561 324.387 257.316C324.252 257.067 324.185 256.755 324.185 256.381V254.186H324.876V256.302C324.876 256.676 324.965 256.956 325.143 257.144C325.325 257.331 325.579 257.424 325.905 257.424C326.145 257.424 326.354 257.376 326.532 257.28C326.709 257.18 326.846 257.036 326.942 256.848C327.038 256.657 327.086 256.426 327.086 256.158V254.186H327.777V258H327.122V256.971L327.23 257.244C327.105 257.499 326.918 257.695 326.668 257.834C326.419 257.974 326.138 258.043 325.826 258.043ZM330.762 259.439C330.411 259.439 330.071 259.389 329.74 259.288C329.413 259.192 329.147 259.053 328.941 258.871L329.272 258.338C329.449 258.492 329.668 258.612 329.927 258.698C330.186 258.789 330.457 258.835 330.74 258.835C331.191 258.835 331.522 258.729 331.733 258.518C331.944 258.307 332.05 257.986 332.05 257.554V256.748L332.122 255.992L332.086 255.229V254.186H332.741V257.482C332.741 258.154 332.573 258.648 332.237 258.964C331.901 259.281 331.409 259.439 330.762 259.439ZM330.675 257.842C330.306 257.842 329.975 257.765 329.682 257.611C329.394 257.453 329.164 257.235 328.991 256.956C328.823 256.678 328.739 256.357 328.739 255.992C328.739 255.623 328.823 255.301 328.991 255.028C329.164 254.749 329.394 254.533 329.682 254.38C329.975 254.226 330.306 254.15 330.675 254.15C331.002 254.15 331.299 254.217 331.568 254.351C331.836 254.481 332.05 254.682 332.208 254.956C332.371 255.229 332.453 255.575 332.453 255.992C332.453 256.405 332.371 256.748 332.208 257.021C332.05 257.295 331.836 257.501 331.568 257.64C331.299 257.774 331.002 257.842 330.675 257.842ZM330.754 257.237C331.009 257.237 331.234 257.184 331.431 257.079C331.628 256.973 331.781 256.827 331.892 256.64C332.007 256.453 332.064 256.237 332.064 255.992C332.064 255.747 332.007 255.531 331.892 255.344C331.781 255.157 331.628 255.013 331.431 254.912C331.234 254.807 331.009 254.754 330.754 254.754C330.5 254.754 330.272 254.807 330.071 254.912C329.874 255.013 329.718 255.157 329.603 255.344C329.493 255.531 329.437 255.747 329.437 255.992C329.437 256.237 329.493 256.453 329.603 256.64C329.718 256.827 329.874 256.973 330.071 257.079C330.272 257.184 330.5 257.237 330.754 257.237Z" fill="#3E4954"/>
<path d="M358.389 258V253.25L358.698 253.588H357.252V252.962H359.101V258H358.389ZM361.837 252.905C362.293 252.905 362.677 253.003 362.988 253.2C363.305 253.396 363.545 253.682 363.708 254.056C363.871 254.426 363.953 254.879 363.953 255.416C363.953 255.987 363.852 256.469 363.651 256.863C363.449 257.256 363.171 257.554 362.816 257.755C362.461 257.957 362.046 258.058 361.571 258.058C361.336 258.058 361.108 258.034 360.887 257.986C360.671 257.938 360.482 257.863 360.318 257.762L360.592 257.201C360.726 257.287 360.875 257.35 361.038 257.388C361.206 257.422 361.381 257.439 361.563 257.439C362.072 257.439 362.478 257.28 362.78 256.964C363.082 256.642 363.233 256.167 363.233 255.539C363.233 255.438 363.228 255.318 363.219 255.179C363.209 255.04 363.188 254.903 363.154 254.769L363.392 255.013C363.324 255.234 363.212 255.421 363.053 255.575C362.9 255.723 362.713 255.836 362.492 255.913C362.276 255.985 362.038 256.021 361.779 256.021C361.448 256.021 361.153 255.958 360.894 255.834C360.635 255.709 360.431 255.534 360.282 255.308C360.134 255.078 360.059 254.807 360.059 254.495C360.059 254.169 360.136 253.888 360.29 253.653C360.448 253.413 360.661 253.228 360.93 253.099C361.204 252.969 361.506 252.905 361.837 252.905ZM361.866 253.487C361.65 253.487 361.458 253.528 361.29 253.61C361.122 253.691 360.99 253.804 360.894 253.948C360.803 254.092 360.757 254.265 360.757 254.466C360.757 254.764 360.861 255.001 361.067 255.179C361.273 255.352 361.551 255.438 361.902 255.438C362.132 255.438 362.334 255.395 362.506 255.308C362.684 255.222 362.821 255.104 362.917 254.956C363.017 254.807 363.068 254.641 363.068 254.459C363.068 254.282 363.022 254.121 362.931 253.977C362.84 253.833 362.705 253.715 362.528 253.624C362.35 253.533 362.13 253.487 361.866 253.487ZM365.036 258.043C364.901 258.043 364.786 257.998 364.69 257.906C364.594 257.81 364.546 257.691 364.546 257.547C364.546 257.403 364.594 257.285 364.69 257.194C364.786 257.103 364.901 257.057 365.036 257.057C365.165 257.057 365.276 257.103 365.367 257.194C365.463 257.285 365.511 257.403 365.511 257.547C365.511 257.691 365.463 257.81 365.367 257.906C365.276 257.998 365.165 258.043 365.036 258.043ZM370.003 258.058C369.619 258.058 369.252 258 368.901 257.885C368.551 257.765 368.275 257.611 368.074 257.424L368.34 256.863C368.532 257.031 368.777 257.17 369.074 257.28C369.372 257.391 369.681 257.446 370.003 257.446C370.295 257.446 370.533 257.412 370.715 257.345C370.897 257.278 371.032 257.187 371.118 257.072C371.204 256.952 371.248 256.817 371.248 256.669C371.248 256.496 371.19 256.357 371.075 256.251C370.965 256.146 370.818 256.062 370.636 255.999C370.458 255.932 370.262 255.874 370.046 255.827C369.83 255.779 369.612 255.723 369.391 255.661C369.175 255.594 368.976 255.51 368.793 255.409C368.616 255.308 368.472 255.174 368.362 255.006C368.251 254.833 368.196 254.613 368.196 254.344C368.196 254.085 368.263 253.847 368.398 253.631C368.537 253.411 368.748 253.236 369.031 253.106C369.319 252.972 369.683 252.905 370.125 252.905C370.418 252.905 370.708 252.943 370.996 253.02C371.284 253.096 371.533 253.207 371.744 253.351L371.507 253.927C371.291 253.783 371.063 253.679 370.823 253.617C370.583 253.55 370.35 253.516 370.125 253.516C369.842 253.516 369.609 253.552 369.427 253.624C369.244 253.696 369.11 253.792 369.024 253.912C368.942 254.032 368.901 254.166 368.901 254.315C368.901 254.493 368.957 254.634 369.067 254.74C369.182 254.845 369.328 254.929 369.506 254.992C369.688 255.054 369.887 255.112 370.103 255.164C370.319 255.212 370.535 255.268 370.751 255.33C370.972 255.392 371.171 255.474 371.348 255.575C371.531 255.675 371.677 255.81 371.787 255.978C371.898 256.146 371.953 256.361 371.953 256.625C371.953 256.88 371.883 257.117 371.744 257.338C371.605 257.554 371.389 257.729 371.096 257.863C370.809 257.993 370.444 258.058 370.003 258.058ZM374.602 258.043C374.194 258.043 373.834 257.959 373.523 257.791C373.215 257.623 372.976 257.393 372.803 257.1C372.635 256.808 372.551 256.472 372.551 256.093C372.551 255.714 372.633 255.378 372.796 255.085C372.964 254.793 373.191 254.565 373.479 254.402C373.772 254.234 374.101 254.15 374.465 254.15C374.835 254.15 375.161 254.231 375.444 254.394C375.727 254.557 375.948 254.788 376.106 255.085C376.269 255.378 376.351 255.721 376.351 256.114C376.351 256.143 376.349 256.177 376.344 256.215C376.344 256.254 376.341 256.29 376.337 256.323H373.091V255.827H375.977L375.696 255.999C375.701 255.755 375.65 255.536 375.545 255.344C375.439 255.152 375.293 255.004 375.106 254.898C374.924 254.788 374.71 254.733 374.465 254.733C374.225 254.733 374.012 254.788 373.825 254.898C373.638 255.004 373.491 255.155 373.386 255.352C373.28 255.543 373.227 255.764 373.227 256.014V256.129C373.227 256.383 373.285 256.611 373.4 256.812C373.52 257.009 373.686 257.163 373.897 257.273C374.108 257.383 374.35 257.439 374.624 257.439C374.849 257.439 375.053 257.4 375.235 257.323C375.423 257.247 375.586 257.132 375.725 256.978L376.106 257.424C375.934 257.626 375.718 257.779 375.459 257.885C375.204 257.99 374.919 258.043 374.602 258.043ZM379.333 258.043C379.016 258.043 378.726 257.971 378.462 257.827C378.203 257.679 377.994 257.46 377.836 257.172C377.682 256.884 377.605 256.525 377.605 256.093C377.605 255.661 377.68 255.301 377.829 255.013C377.982 254.725 378.188 254.509 378.447 254.366C378.711 254.222 379.006 254.15 379.333 254.15C379.707 254.15 380.038 254.231 380.326 254.394C380.614 254.557 380.842 254.785 381.01 255.078C381.178 255.366 381.261 255.704 381.261 256.093C381.261 256.481 381.178 256.822 381.01 257.115C380.842 257.407 380.614 257.635 380.326 257.798C380.038 257.962 379.707 258.043 379.333 258.043ZM377.31 259.396V254.186H377.972V255.215L377.929 256.1L378.001 256.985V259.396H377.31ZM379.275 257.439C379.52 257.439 379.738 257.383 379.93 257.273C380.127 257.163 380.28 257.007 380.391 256.805C380.506 256.599 380.563 256.361 380.563 256.093C380.563 255.819 380.506 255.584 380.391 255.387C380.28 255.186 380.127 255.03 379.93 254.92C379.738 254.809 379.52 254.754 379.275 254.754C379.035 254.754 378.817 254.809 378.62 254.92C378.428 255.03 378.275 255.186 378.16 255.387C378.049 255.584 377.994 255.819 377.994 256.093C377.994 256.361 378.049 256.599 378.16 256.805C378.275 257.007 378.428 257.163 378.62 257.273C378.817 257.383 379.035 257.439 379.275 257.439Z" fill="#3E4954"/>
<path d="M407.472 258V253.25L407.781 253.588H406.335V252.962H408.184V258H407.472ZM410.92 252.905C411.376 252.905 411.76 253.003 412.072 253.2C412.388 253.396 412.628 253.682 412.791 254.056C412.954 254.426 413.036 254.879 413.036 255.416C413.036 255.987 412.935 256.469 412.734 256.863C412.532 257.256 412.254 257.554 411.899 257.755C411.544 257.957 411.129 258.058 410.654 258.058C410.419 258.058 410.191 258.034 409.97 257.986C409.754 257.938 409.565 257.863 409.402 257.762L409.675 257.201C409.809 257.287 409.958 257.35 410.121 257.388C410.289 257.422 410.464 257.439 410.647 257.439C411.155 257.439 411.561 257.28 411.863 256.964C412.165 256.642 412.316 256.167 412.316 255.539C412.316 255.438 412.312 255.318 412.302 255.179C412.292 255.04 412.271 254.903 412.237 254.769L412.475 255.013C412.408 255.234 412.295 255.421 412.136 255.575C411.983 255.723 411.796 255.836 411.575 255.913C411.359 255.985 411.122 256.021 410.863 256.021C410.532 256.021 410.236 255.958 409.977 255.834C409.718 255.709 409.514 255.534 409.366 255.308C409.217 255.078 409.142 254.807 409.142 254.495C409.142 254.169 409.219 253.888 409.373 253.653C409.531 253.413 409.745 253.228 410.013 253.099C410.287 252.969 410.589 252.905 410.92 252.905ZM410.949 253.487C410.733 253.487 410.541 253.528 410.373 253.61C410.205 253.691 410.073 253.804 409.977 253.948C409.886 254.092 409.841 254.265 409.841 254.466C409.841 254.764 409.944 255.001 410.15 255.179C410.356 255.352 410.635 255.438 410.985 255.438C411.215 255.438 411.417 255.395 411.589 255.308C411.767 255.222 411.904 255.104 412 254.956C412.1 254.807 412.151 254.641 412.151 254.459C412.151 254.282 412.105 254.121 412.014 253.977C411.923 253.833 411.789 253.715 411.611 253.624C411.434 253.533 411.213 253.487 410.949 253.487ZM414.119 258.043C413.985 258.043 413.869 257.998 413.774 257.906C413.678 257.81 413.63 257.691 413.63 257.547C413.63 257.403 413.678 257.285 413.774 257.194C413.869 257.103 413.985 257.057 414.119 257.057C414.249 257.057 414.359 257.103 414.45 257.194C414.546 257.285 414.594 257.403 414.594 257.547C414.594 257.691 414.546 257.81 414.45 257.906C414.359 257.998 414.249 258.043 414.119 258.043ZM419.892 258.058C419.508 258.058 419.15 257.993 418.819 257.863C418.493 257.734 418.21 257.554 417.97 257.323C417.73 257.088 417.543 256.815 417.409 256.503C417.274 256.191 417.207 255.851 417.207 255.481C417.207 255.112 417.274 254.771 417.409 254.459C417.543 254.147 417.73 253.876 417.97 253.646C418.21 253.411 418.493 253.228 418.819 253.099C419.146 252.969 419.503 252.905 419.892 252.905C420.276 252.905 420.628 252.969 420.95 253.099C421.276 253.224 421.559 253.404 421.799 253.639C422.044 253.869 422.231 254.14 422.36 254.452C422.495 254.764 422.562 255.107 422.562 255.481C422.562 255.855 422.495 256.198 422.36 256.51C422.231 256.822 422.044 257.096 421.799 257.331C421.559 257.561 421.276 257.741 420.95 257.87C420.628 257.995 420.276 258.058 419.892 258.058ZM419.892 257.417C420.17 257.417 420.427 257.369 420.662 257.273C420.902 257.177 421.108 257.043 421.281 256.87C421.458 256.693 421.595 256.486 421.691 256.251C421.792 256.016 421.842 255.759 421.842 255.481C421.842 255.203 421.792 254.946 421.691 254.711C421.595 254.476 421.458 254.272 421.281 254.099C421.108 253.922 420.902 253.785 420.662 253.689C420.427 253.593 420.17 253.545 419.892 253.545C419.609 253.545 419.347 253.593 419.107 253.689C418.872 253.785 418.666 253.922 418.488 254.099C418.311 254.272 418.172 254.476 418.071 254.711C417.975 254.946 417.927 255.203 417.927 255.481C417.927 255.759 417.975 256.016 418.071 256.251C418.172 256.486 418.311 256.693 418.488 256.87C418.666 257.043 418.872 257.177 419.107 257.273C419.347 257.369 419.609 257.417 419.892 257.417ZM425.224 258.043C424.835 258.043 424.487 257.959 424.18 257.791C423.878 257.623 423.64 257.393 423.468 257.1C423.295 256.808 423.208 256.472 423.208 256.093C423.208 255.714 423.295 255.378 423.468 255.085C423.64 254.793 423.878 254.565 424.18 254.402C424.487 254.234 424.835 254.15 425.224 254.15C425.569 254.15 425.876 254.219 426.145 254.358C426.418 254.493 426.629 254.694 426.778 254.963L426.253 255.301C426.128 255.114 425.975 254.977 425.792 254.891C425.615 254.8 425.423 254.754 425.216 254.754C424.967 254.754 424.744 254.809 424.547 254.92C424.35 255.03 424.194 255.186 424.079 255.387C423.964 255.584 423.907 255.819 423.907 256.093C423.907 256.366 423.964 256.604 424.079 256.805C424.194 257.007 424.35 257.163 424.547 257.273C424.744 257.383 424.967 257.439 425.216 257.439C425.423 257.439 425.615 257.395 425.792 257.309C425.975 257.218 426.128 257.079 426.253 256.892L426.778 257.223C426.629 257.487 426.418 257.691 426.145 257.834C425.876 257.974 425.569 258.043 425.224 258.043ZM429.032 258.043C428.648 258.043 428.35 257.94 428.139 257.734C427.928 257.527 427.823 257.232 427.823 256.848V253.351H428.514V256.82C428.514 257.026 428.564 257.184 428.665 257.295C428.77 257.405 428.919 257.46 429.111 257.46C429.327 257.46 429.507 257.4 429.651 257.28L429.867 257.777C429.761 257.868 429.634 257.935 429.485 257.978C429.341 258.022 429.19 258.043 429.032 258.043ZM427.175 254.754V254.186H429.607V254.754H427.175Z" fill="#3E4954"/>
<path d="M453.543 258V253.25L453.852 253.588H452.405V252.962H454.255V258H453.543ZM456.991 252.905C457.447 252.905 457.83 253.003 458.142 253.2C458.459 253.396 458.699 253.682 458.862 254.056C459.025 254.426 459.107 254.879 459.107 255.416C459.107 255.987 459.006 256.469 458.804 256.863C458.603 257.256 458.325 257.554 457.969 257.755C457.614 257.957 457.199 258.058 456.724 258.058C456.489 258.058 456.261 258.034 456.041 257.986C455.825 257.938 455.635 257.863 455.472 257.762L455.746 257.201C455.88 257.287 456.029 257.35 456.192 257.388C456.36 257.422 456.535 257.439 456.717 257.439C457.226 257.439 457.631 257.28 457.934 256.964C458.236 256.642 458.387 256.167 458.387 255.539C458.387 255.438 458.382 255.318 458.373 255.179C458.363 255.04 458.341 254.903 458.308 254.769L458.545 255.013C458.478 255.234 458.365 255.421 458.207 255.575C458.053 255.723 457.866 255.836 457.646 255.913C457.43 255.985 457.192 256.021 456.933 256.021C456.602 256.021 456.307 255.958 456.048 255.834C455.789 255.709 455.585 255.534 455.436 255.308C455.287 255.078 455.213 254.807 455.213 254.495C455.213 254.169 455.29 253.888 455.443 253.653C455.602 253.413 455.815 253.228 456.084 253.099C456.357 252.969 456.66 252.905 456.991 252.905ZM457.019 253.487C456.804 253.487 456.612 253.528 456.444 253.61C456.276 253.691 456.144 253.804 456.048 253.948C455.957 254.092 455.911 254.265 455.911 254.466C455.911 254.764 456.014 255.001 456.221 255.179C456.427 255.352 456.705 255.438 457.055 255.438C457.286 255.438 457.487 255.395 457.66 255.308C457.838 255.222 457.974 255.104 458.07 254.956C458.171 254.807 458.221 254.641 458.221 254.459C458.221 254.282 458.176 254.121 458.085 253.977C457.993 253.833 457.859 253.715 457.682 253.624C457.504 253.533 457.283 253.487 457.019 253.487ZM460.19 258.043C460.055 258.043 459.94 257.998 459.844 257.906C459.748 257.81 459.7 257.691 459.7 257.547C459.7 257.403 459.748 257.285 459.844 257.194C459.94 257.103 460.055 257.057 460.19 257.057C460.319 257.057 460.429 257.103 460.521 257.194C460.617 257.285 460.665 257.403 460.665 257.547C460.665 257.691 460.617 257.81 460.521 257.906C460.429 257.998 460.319 258.043 460.19 258.043ZM463.688 258V252.962H464.278L467.61 257.1H467.301V252.962H468.021V258H467.431L464.098 253.862H464.408V258H463.688ZM471.062 258.043C470.678 258.043 470.337 257.959 470.04 257.791C469.742 257.623 469.507 257.393 469.334 257.1C469.162 256.803 469.075 256.467 469.075 256.093C469.075 255.714 469.162 255.378 469.334 255.085C469.507 254.793 469.742 254.565 470.04 254.402C470.337 254.234 470.678 254.15 471.062 254.15C471.441 254.15 471.779 254.234 472.076 254.402C472.379 254.565 472.614 254.793 472.782 255.085C472.954 255.373 473.041 255.709 473.041 256.093C473.041 256.472 472.954 256.808 472.782 257.1C472.614 257.393 472.379 257.623 472.076 257.791C471.779 257.959 471.441 258.043 471.062 258.043ZM471.062 257.439C471.306 257.439 471.525 257.383 471.716 257.273C471.913 257.163 472.067 257.007 472.177 256.805C472.287 256.599 472.343 256.361 472.343 256.093C472.343 255.819 472.287 255.584 472.177 255.387C472.067 255.186 471.913 255.03 471.716 254.92C471.525 254.809 471.306 254.754 471.062 254.754C470.817 254.754 470.599 254.809 470.407 254.92C470.215 255.03 470.061 255.186 469.946 255.387C469.831 255.584 469.773 255.819 469.773 256.093C469.773 256.361 469.831 256.599 469.946 256.805C470.061 257.007 470.215 257.163 470.407 257.273C470.599 257.383 470.817 257.439 471.062 257.439ZM474.891 258L473.222 254.186H473.941L475.424 257.64H475.078L476.59 254.186H477.266L475.597 258H474.891Z" fill="#3E4954"/>
<path d="M501.791 258V253.25L502.1 253.588H500.654V252.962H502.503V258H501.791ZM505.239 252.905C505.695 252.905 506.079 253.003 506.391 253.2C506.707 253.396 506.947 253.682 507.11 254.056C507.273 254.426 507.355 254.879 507.355 255.416C507.355 255.987 507.254 256.469 507.053 256.863C506.851 257.256 506.573 257.554 506.218 257.755C505.863 257.957 505.448 258.058 504.973 258.058C504.738 258.058 504.51 258.034 504.289 257.986C504.073 257.938 503.884 257.863 503.72 257.762L503.994 257.201C504.128 257.287 504.277 257.35 504.44 257.388C504.608 257.422 504.783 257.439 504.966 257.439C505.474 257.439 505.88 257.28 506.182 256.964C506.484 256.642 506.635 256.167 506.635 255.539C506.635 255.438 506.63 255.318 506.621 255.179C506.611 255.04 506.59 254.903 506.556 254.769L506.794 255.013C506.726 255.234 506.614 255.421 506.455 255.575C506.302 255.723 506.115 255.836 505.894 255.913C505.678 255.985 505.441 256.021 505.181 256.021C504.85 256.021 504.555 255.958 504.296 255.834C504.037 255.709 503.833 255.534 503.684 255.308C503.536 255.078 503.461 254.807 503.461 254.495C503.461 254.169 503.538 253.888 503.692 253.653C503.85 253.413 504.063 253.228 504.332 253.099C504.606 252.969 504.908 252.905 505.239 252.905ZM505.268 253.487C505.052 253.487 504.86 253.528 504.692 253.61C504.524 253.691 504.392 253.804 504.296 253.948C504.205 254.092 504.159 254.265 504.159 254.466C504.159 254.764 504.263 255.001 504.469 255.179C504.675 255.352 504.954 255.438 505.304 255.438C505.534 255.438 505.736 255.395 505.908 255.308C506.086 255.222 506.223 255.104 506.319 254.956C506.419 254.807 506.47 254.641 506.47 254.459C506.47 254.282 506.424 254.121 506.333 253.977C506.242 253.833 506.107 253.715 505.93 253.624C505.752 253.533 505.532 253.487 505.268 253.487ZM508.438 258.043C508.303 258.043 508.188 257.998 508.092 257.906C507.996 257.81 507.948 257.691 507.948 257.547C507.948 257.403 507.996 257.285 508.092 257.194C508.188 257.103 508.303 257.057 508.438 257.057C508.567 257.057 508.678 257.103 508.769 257.194C508.865 257.285 508.913 257.403 508.913 257.547C508.913 257.691 508.865 257.81 508.769 257.906C508.678 257.998 508.567 258.043 508.438 258.043ZM511.936 258V252.962H512.527L515.859 257.1H515.549V252.962H516.269V258H515.679L512.347 253.862H512.656V258H511.936ZM519.31 258.043C518.926 258.043 518.585 257.959 518.288 257.791C517.99 257.623 517.755 257.393 517.583 257.1C517.41 256.803 517.323 256.467 517.323 256.093C517.323 255.714 517.41 255.378 517.583 255.085C517.755 254.793 517.99 254.565 518.288 254.402C518.585 254.234 518.926 254.15 519.31 254.15C519.689 254.15 520.027 254.234 520.325 254.402C520.627 254.565 520.862 254.793 521.03 255.085C521.203 255.373 521.289 255.709 521.289 256.093C521.289 256.472 521.203 256.808 521.03 257.1C520.862 257.393 520.627 257.623 520.325 257.791C520.027 257.959 519.689 258.043 519.31 258.043ZM519.31 257.439C519.555 257.439 519.773 257.383 519.965 257.273C520.161 257.163 520.315 257.007 520.425 256.805C520.536 256.599 520.591 256.361 520.591 256.093C520.591 255.819 520.536 255.584 520.425 255.387C520.315 255.186 520.161 255.03 519.965 254.92C519.773 254.809 519.555 254.754 519.31 254.754C519.065 254.754 518.847 254.809 518.655 254.92C518.463 255.03 518.309 255.186 518.194 255.387C518.079 255.584 518.022 255.819 518.022 256.093C518.022 256.361 518.079 256.599 518.194 256.805C518.309 257.007 518.463 257.163 518.655 257.273C518.847 257.383 519.065 257.439 519.31 257.439ZM523.139 258L521.47 254.186H522.189L523.672 257.64H523.327L524.838 254.186H525.514L523.845 258H523.139Z" fill="#3E4954"/>
<path d="M2.48728 207V206.511L4.53842 204.531C4.72074 204.359 4.85508 204.208 4.94145 204.078C5.03261 203.944 5.09258 203.821 5.12137 203.711C5.15496 203.596 5.17175 203.485 5.17175 203.38C5.17175 203.121 5.08059 202.917 4.89827 202.768C4.71594 202.619 4.44966 202.545 4.0994 202.545C3.83072 202.545 3.58842 202.591 3.37251 202.682C3.1566 202.768 2.96948 202.905 2.81114 203.092L2.32175 202.667C2.51367 202.423 2.77036 202.236 3.09183 202.106C3.41809 201.972 3.77554 201.905 4.16418 201.905C4.51443 201.905 4.8191 201.962 5.07819 202.077C5.33728 202.188 5.5364 202.348 5.67554 202.559C5.81948 202.771 5.89145 203.02 5.89145 203.308C5.89145 203.471 5.86986 203.632 5.82668 203.79C5.78349 203.948 5.70193 204.116 5.58198 204.294C5.46203 204.471 5.2893 204.671 5.0638 204.891L3.23577 206.655L3.06304 206.374H6.10736V207H2.48728ZM8.75039 207.058C8.35695 207.058 8.0043 206.957 7.69243 206.755C7.38536 206.554 7.14067 206.261 6.95834 205.877C6.78082 205.493 6.69206 205.028 6.69206 204.481C6.69206 203.934 6.78082 203.469 6.95834 203.085C7.14067 202.701 7.38536 202.408 7.69243 202.207C8.0043 202.005 8.35695 201.905 8.75039 201.905C9.13903 201.905 9.48928 202.005 9.80115 202.207C10.113 202.408 10.3577 202.701 10.5352 203.085C10.7128 203.469 10.8015 203.934 10.8015 204.481C10.8015 205.028 10.7128 205.493 10.5352 205.877C10.3577 206.261 10.113 206.554 9.80115 206.755C9.48928 206.957 9.13903 207.058 8.75039 207.058ZM8.75039 206.417C9.01428 206.417 9.24458 206.345 9.4413 206.201C9.64281 206.057 9.79875 205.841 9.9091 205.553C10.0243 205.266 10.0818 204.908 10.0818 204.481C10.0818 204.054 10.0243 203.697 9.9091 203.409C9.79875 203.121 9.64281 202.905 9.4413 202.761C9.24458 202.617 9.01428 202.545 8.75039 202.545C8.4865 202.545 8.2538 202.617 8.05228 202.761C7.85077 202.905 7.69243 203.121 7.57728 203.409C7.46693 203.697 7.41175 204.054 7.41175 204.481C7.41175 204.908 7.46693 205.266 7.57728 205.553C7.69243 205.841 7.85077 206.057 8.05228 206.201C8.2538 206.345 8.4865 206.417 8.75039 206.417ZM13.5507 207.058C13.1573 207.058 12.8046 206.957 12.4928 206.755C12.1857 206.554 11.941 206.261 11.7587 205.877C11.5811 205.493 11.4924 205.028 11.4924 204.481C11.4924 203.934 11.5811 203.469 11.7587 203.085C11.941 202.701 12.1857 202.408 12.4928 202.207C12.8046 202.005 13.1573 201.905 13.5507 201.905C13.9393 201.905 14.2896 202.005 14.6015 202.207C14.9133 202.408 15.158 202.701 15.3356 203.085C15.5131 203.469 15.6018 203.934 15.6018 204.481C15.6018 205.028 15.5131 205.493 15.3356 205.877C15.158 206.261 14.9133 206.554 14.6015 206.755C14.2896 206.957 13.9393 207.058 13.5507 207.058ZM13.5507 206.417C13.8146 206.417 14.0449 206.345 14.2416 206.201C14.4431 206.057 14.5991 205.841 14.7094 205.553C14.8246 205.266 14.8822 204.908 14.8822 204.481C14.8822 204.054 14.8246 203.697 14.7094 203.409C14.5991 203.121 14.4431 202.905 14.2416 202.761C14.0449 202.617 13.8146 202.545 13.5507 202.545C13.2868 202.545 13.0541 202.617 12.8526 202.761C12.6511 202.905 12.4928 203.121 12.3776 203.409C12.2673 203.697 12.2121 204.054 12.2121 204.481C12.2121 204.908 12.2673 205.266 12.3776 205.553C12.4928 205.841 12.6511 206.057 12.8526 206.201C13.0541 206.345 13.2868 206.417 13.5507 206.417ZM17.1635 206.079L17.1779 205.194L19.373 203.186H20.2079L18.5238 204.841L18.1495 205.158L17.1635 206.079ZM16.6022 207V201.66H17.2931V207H16.6022ZM19.5169 207L18.02 205.143L18.4662 204.589L20.3662 207H19.5169Z" fill="#3E4954"/>
<path d="M1.8057 168.762V168.258L4.38222 164.962H5.15949L2.60457 168.258L2.23752 168.143H6.26063V168.762H1.8057ZM4.60533 170V168.762L4.62692 168.143V167.049H5.30343V170H4.60533ZM8.75039 170.058C8.35695 170.058 8.0043 169.957 7.69243 169.755C7.38536 169.554 7.14066 169.261 6.95834 168.877C6.78082 168.493 6.69205 168.028 6.69205 167.481C6.69205 166.934 6.78082 166.469 6.95834 166.085C7.14066 165.701 7.38536 165.408 7.69243 165.207C8.0043 165.005 8.35695 164.905 8.75039 164.905C9.13902 164.905 9.48928 165.005 9.80115 165.207C10.113 165.408 10.3577 165.701 10.5352 166.085C10.7128 166.469 10.8015 166.934 10.8015 167.481C10.8015 168.028 10.7128 168.493 10.5352 168.877C10.3577 169.261 10.113 169.554 9.80115 169.755C9.48928 169.957 9.13902 170.058 8.75039 170.058ZM8.75039 169.417C9.01428 169.417 9.24458 169.345 9.4413 169.201C9.64281 169.057 9.79875 168.841 9.9091 168.553C10.0243 168.266 10.0818 167.908 10.0818 167.481C10.0818 167.054 10.0243 166.697 9.9091 166.409C9.79875 166.121 9.64281 165.905 9.4413 165.761C9.24458 165.617 9.01428 165.545 8.75039 165.545C8.4865 165.545 8.2538 165.617 8.05228 165.761C7.85077 165.905 7.69243 166.121 7.57728 166.409C7.46693 166.697 7.41175 167.054 7.41175 167.481C7.41175 167.908 7.46693 168.266 7.57728 168.553C7.69243 168.841 7.85077 169.057 8.05228 169.201C8.2538 169.345 8.4865 169.417 8.75039 169.417ZM13.5507 170.058C13.1573 170.058 12.8046 169.957 12.4928 169.755C12.1857 169.554 11.941 169.261 11.7587 168.877C11.5811 168.493 11.4924 168.028 11.4924 167.481C11.4924 166.934 11.5811 166.469 11.7587 166.085C11.941 165.701 12.1857 165.408 12.4928 165.207C12.8046 165.005 13.1573 164.905 13.5507 164.905C13.9393 164.905 14.2896 165.005 14.6015 165.207C14.9133 165.408 15.158 165.701 15.3356 166.085C15.5131 166.469 15.6018 166.934 15.6018 167.481C15.6018 168.028 15.5131 168.493 15.3356 168.877C15.158 169.261 14.9133 169.554 14.6015 169.755C14.2896 169.957 13.9393 170.058 13.5507 170.058ZM13.5507 169.417C13.8146 169.417 14.0449 169.345 14.2416 169.201C14.4431 169.057 14.5991 168.841 14.7094 168.553C14.8246 168.266 14.8822 167.908 14.8822 167.481C14.8822 167.054 14.8246 166.697 14.7094 166.409C14.5991 166.121 14.4431 165.905 14.2416 165.761C14.0449 165.617 13.8146 165.545 13.5507 165.545C13.2868 165.545 13.0541 165.617 12.8526 165.761C12.6511 165.905 12.4928 166.121 12.3776 166.409C12.2673 166.697 12.2121 167.054 12.2121 167.481C12.2121 167.908 12.2673 168.266 12.3776 168.553C12.4928 168.841 12.6511 169.057 12.8526 169.201C13.0541 169.345 13.2868 169.417 13.5507 169.417ZM17.1635 169.079L17.1779 168.194L19.373 166.186H20.2079L18.5238 167.841L18.1495 168.158L17.1635 169.079ZM16.6022 170V164.66H17.2931V170H16.6022ZM19.5169 170L18.02 168.143L18.4662 167.589L20.3662 170H19.5169Z" fill="#3E4954"/>
<path d="M5.43823 134.058C4.99202 134.058 4.61058 133.959 4.29391 133.762C3.97724 133.566 3.73494 133.283 3.56702 132.913C3.40388 132.539 3.32232 132.083 3.32232 131.546C3.32232 130.975 3.42308 130.493 3.62459 130.099C3.82611 129.706 4.10679 129.408 4.46664 129.207C4.82649 129.005 5.23911 128.905 5.70452 128.905C5.94441 128.905 6.17232 128.929 6.38823 128.977C6.60894 129.024 6.79846 129.099 6.95679 129.2L6.6833 129.761C6.55376 129.67 6.40502 129.607 6.23709 129.574C6.07396 129.54 5.90123 129.523 5.71891 129.523C5.20553 129.523 4.7977 129.684 4.49542 130.006C4.19315 130.322 4.04202 130.795 4.04202 131.423C4.04202 131.524 4.04681 131.644 4.05641 131.783C4.06601 131.922 4.09 132.059 4.12838 132.194L3.88368 131.949C3.95565 131.728 4.0684 131.543 4.22194 131.395C4.38027 131.241 4.56739 131.128 4.7833 131.056C5.00401 130.98 5.24151 130.941 5.4958 130.941C5.83166 130.941 6.12914 131.004 6.38823 131.128C6.64732 131.253 6.85123 131.431 6.99997 131.661C7.14871 131.886 7.22308 132.155 7.22308 132.467C7.22308 132.789 7.14391 133.069 6.98558 133.309C6.82724 133.549 6.61373 133.734 6.34505 133.863C6.07636 133.993 5.77409 134.058 5.43823 134.058ZM5.40944 133.475C5.63015 133.475 5.82207 133.434 5.9852 133.352C6.15313 133.271 6.28507 133.158 6.38103 133.014C6.47699 132.865 6.52497 132.693 6.52497 132.496C6.52497 132.198 6.42181 131.963 6.2155 131.791C6.00919 131.613 5.72851 131.524 5.37346 131.524C5.14315 131.524 4.94164 131.567 4.76891 131.654C4.59618 131.74 4.45944 131.858 4.35868 132.006C4.26272 132.15 4.21474 132.316 4.21474 132.503C4.21474 132.676 4.26032 132.836 4.35149 132.985C4.44265 133.129 4.57699 133.247 4.75452 133.338C4.93204 133.429 5.15035 133.475 5.40944 133.475ZM9.82253 134.058C9.4291 134.058 9.07645 133.957 8.76458 133.755C8.45751 133.554 8.21281 133.261 8.03049 132.877C7.85296 132.493 7.7642 132.028 7.7642 131.481C7.7642 130.934 7.85296 130.469 8.03049 130.085C8.21281 129.701 8.45751 129.408 8.76458 129.207C9.07645 129.005 9.4291 128.905 9.82253 128.905C10.2112 128.905 10.5614 129.005 10.8733 129.207C11.1852 129.408 11.4299 129.701 11.6074 130.085C11.7849 130.469 11.8737 130.934 11.8737 131.481C11.8737 132.028 11.7849 132.493 11.6074 132.877C11.4299 133.261 11.1852 133.554 10.8733 133.755C10.5614 133.957 10.2112 134.058 9.82253 134.058ZM9.82253 133.417C10.0864 133.417 10.3167 133.345 10.5134 133.201C10.715 133.057 10.8709 132.841 10.9812 132.553C11.0964 132.266 11.154 131.908 11.154 131.481C11.154 131.054 11.0964 130.697 10.9812 130.409C10.8709 130.121 10.715 129.905 10.5134 129.761C10.3167 129.617 10.0864 129.545 9.82253 129.545C9.55864 129.545 9.32594 129.617 9.12443 129.761C8.92291 129.905 8.76458 130.121 8.64943 130.409C8.53907 130.697 8.4839 131.054 8.4839 131.481C8.4839 131.908 8.53907 132.266 8.64943 132.553C8.76458 132.841 8.92291 133.057 9.12443 133.201C9.32594 133.345 9.55864 133.417 9.82253 133.417ZM14.6229 134.058C14.2294 134.058 13.8768 133.957 13.5649 133.755C13.2578 133.554 13.0131 133.261 12.8308 132.877C12.6533 132.493 12.5645 132.028 12.5645 131.481C12.5645 130.934 12.6533 130.469 12.8308 130.085C13.0131 129.701 13.2578 129.408 13.5649 129.207C13.8768 129.005 14.2294 128.905 14.6229 128.905C15.0115 128.905 15.3617 129.005 15.6736 129.207C15.9855 129.408 16.2302 129.701 16.4077 130.085C16.5852 130.469 16.674 130.934 16.674 131.481C16.674 132.028 16.5852 132.493 16.4077 132.877C16.2302 133.261 15.9855 133.554 15.6736 133.755C15.3617 133.957 15.0115 134.058 14.6229 134.058ZM14.6229 133.417C14.8867 133.417 15.117 133.345 15.3138 133.201C15.5153 133.057 15.6712 132.841 15.7816 132.553C15.8967 132.266 15.9543 131.908 15.9543 131.481C15.9543 131.054 15.8967 130.697 15.7816 130.409C15.6712 130.121 15.5153 129.905 15.3138 129.761C15.117 129.617 14.8867 129.545 14.6229 129.545C14.359 129.545 14.1263 129.617 13.9248 129.761C13.7232 129.905 13.5649 130.121 13.4498 130.409C13.3394 130.697 13.2842 131.054 13.2842 131.481C13.2842 131.908 13.3394 132.266 13.4498 132.553C13.5649 132.841 13.7232 133.057 13.9248 133.201C14.1263 133.345 14.359 133.417 14.6229 133.417ZM18.2357 133.079L18.2501 132.194L20.4452 130.186H21.28L19.5959 131.841L19.2217 132.158L18.2357 133.079ZM17.6743 134V128.66H18.3652V134H17.6743ZM20.5891 134L19.0921 132.143L19.5383 131.589L21.4383 134H20.5891Z" fill="#3E4954"/>
<path d="M4.02518 96.0576C3.61736 96.0576 3.2647 95.9976 2.96723 95.8777C2.66975 95.7577 2.43945 95.5874 2.27632 95.3667C2.11319 95.1412 2.03162 94.8773 2.03162 94.575C2.03162 94.2775 2.10839 94.0256 2.26193 93.8193C2.42026 93.6082 2.64816 93.4499 2.94564 93.3443C3.24311 93.234 3.60296 93.1788 4.02518 93.1788C4.44741 93.1788 4.80725 93.234 5.10473 93.3443C5.407 93.4499 5.63731 93.6082 5.79564 93.8193C5.95397 94.0304 6.03314 94.2823 6.03314 94.575C6.03314 94.8773 5.95157 95.1412 5.78844 95.3667C5.62531 95.5874 5.39261 95.7577 5.09034 95.8777C4.78806 95.9976 4.43301 96.0576 4.02518 96.0576ZM4.02518 95.4746C4.42821 95.4746 4.74248 95.3931 4.96799 95.2299C5.19829 95.062 5.31344 94.8365 5.31344 94.5534C5.31344 94.2751 5.19829 94.0568 4.96799 93.8985C4.74248 93.7354 4.42821 93.6538 4.02518 93.6538C3.62695 93.6538 3.31508 93.7354 3.08958 93.8985C2.86407 94.0568 2.75132 94.2751 2.75132 94.5534C2.75132 94.8365 2.86407 95.062 3.08958 95.2299C3.31508 95.3931 3.62695 95.4746 4.02518 95.4746ZM4.02518 93.5674C3.64135 93.5674 3.31508 93.517 3.0464 93.4163C2.77771 93.3107 2.5714 93.162 2.42746 92.9701C2.28352 92.7734 2.21155 92.5407 2.21155 92.272C2.21155 91.9889 2.28592 91.7466 2.43465 91.5451C2.58819 91.3388 2.8017 91.1804 3.07518 91.0701C3.34867 90.9597 3.66534 90.9045 4.02518 90.9045C4.38983 90.9045 4.7089 90.9597 4.98238 91.0701C5.25587 91.1804 5.46938 91.3388 5.62291 91.5451C5.77645 91.7466 5.85321 91.9889 5.85321 92.272C5.85321 92.5407 5.78125 92.7734 5.63731 92.9701C5.49337 93.162 5.28465 93.3107 5.01117 93.4163C4.73768 93.517 4.40902 93.5674 4.02518 93.5674ZM4.02518 93.1068C4.37544 93.1068 4.64892 93.0348 4.84564 92.8909C5.04715 92.747 5.14791 92.5503 5.14791 92.3008C5.14791 92.0465 5.04476 91.8473 4.83844 91.7034C4.63213 91.5595 4.36104 91.4875 4.02518 91.4875C3.68933 91.4875 3.42064 91.5595 3.21912 91.7034C3.02241 91.8473 2.92405 92.0465 2.92405 92.3008C2.92405 92.5503 3.02001 92.747 3.21193 92.8909C3.40864 93.0348 3.67973 93.1068 4.02518 93.1068ZM8.75039 96.0576C8.35695 96.0576 8.0043 95.9568 7.69243 95.7553C7.38536 95.5538 7.14067 95.2611 6.95834 94.8773C6.78082 94.4934 6.69206 94.028 6.69206 93.4811C6.69206 92.9341 6.78082 92.4687 6.95834 92.0848C7.14067 91.701 7.38536 91.4083 7.69243 91.2068C8.0043 91.0053 8.35695 90.9045 8.75039 90.9045C9.13903 90.9045 9.48928 91.0053 9.80115 91.2068C10.113 91.4083 10.3577 91.701 10.5352 92.0848C10.7128 92.4687 10.8015 92.9341 10.8015 93.4811C10.8015 94.028 10.7128 94.4934 10.5352 94.8773C10.3577 95.2611 10.113 95.5538 9.80115 95.7553C9.48928 95.9568 9.13903 96.0576 8.75039 96.0576ZM8.75039 95.417C9.01428 95.417 9.24458 95.3451 9.4413 95.2011C9.64281 95.0572 9.79875 94.8413 9.9091 94.5534C10.0243 94.2655 10.0818 93.9081 10.0818 93.4811C10.0818 93.054 10.0243 92.6966 9.9091 92.4087C9.79875 92.1208 9.64281 91.9049 9.4413 91.761C9.24458 91.617 9.01428 91.5451 8.75039 91.5451C8.4865 91.5451 8.2538 91.617 8.05228 91.761C7.85077 91.9049 7.69243 92.1208 7.57728 92.4087C7.46693 92.6966 7.41175 93.054 7.41175 93.4811C7.41175 93.9081 7.46693 94.2655 7.57728 94.5534C7.69243 94.8413 7.85077 95.0572 8.05228 95.2011C8.2538 95.3451 8.4865 95.417 8.75039 95.417ZM13.5507 96.0576C13.1573 96.0576 12.8046 95.9568 12.4928 95.7553C12.1857 95.5538 11.941 95.2611 11.7587 94.8773C11.5811 94.4934 11.4924 94.028 11.4924 93.4811C11.4924 92.9341 11.5811 92.4687 11.7587 92.0848C11.941 91.701 12.1857 91.4083 12.4928 91.2068C12.8046 91.0053 13.1573 90.9045 13.5507 90.9045C13.9393 90.9045 14.2896 91.0053 14.6015 91.2068C14.9133 91.4083 15.158 91.701 15.3356 92.0848C15.5131 92.4687 15.6018 92.9341 15.6018 93.4811C15.6018 94.028 15.5131 94.4934 15.3356 94.8773C15.158 95.2611 14.9133 95.5538 14.6015 95.7553C14.2896 95.9568 13.9393 96.0576 13.5507 96.0576ZM13.5507 95.417C13.8146 95.417 14.0449 95.3451 14.2416 95.2011C14.4431 95.0572 14.5991 94.8413 14.7094 94.5534C14.8246 94.2655 14.8822 93.9081 14.8822 93.4811C14.8822 93.054 14.8246 92.6966 14.7094 92.4087C14.5991 92.1208 14.4431 91.9049 14.2416 91.761C14.0449 91.617 13.8146 91.5451 13.5507 91.5451C13.2868 91.5451 13.0541 91.617 12.8526 91.761C12.6511 91.9049 12.4928 92.1208 12.3776 92.4087C12.2673 92.6966 12.2121 93.054 12.2121 93.4811C12.2121 93.9081 12.2673 94.2655 12.3776 94.5534C12.4928 94.8413 12.6511 95.0572 12.8526 95.2011C13.0541 95.3451 13.2868 95.417 13.5507 95.417ZM17.1635 95.0788L17.1779 94.1936L19.373 92.1856H20.2079L18.5238 93.8409L18.1495 94.1576L17.1635 95.0788ZM16.6022 96V90.6598H17.2931V96H16.6022ZM19.5169 96L18.02 94.1432L18.4662 93.589L20.3662 96H19.5169Z" fill="#3E4954"/>
<path d="M4.96409 59V54.25L5.27356 54.5883H3.82697V53.9621H5.67659V59H4.96409ZM6.81455 60.0652L7.1744 58.6114L7.26796 59.0288C7.12882 59.0288 7.01127 58.9856 6.91531 58.8992C6.82415 58.8129 6.77857 58.6953 6.77857 58.5466C6.77857 58.4027 6.82415 58.2851 6.91531 58.1939C7.01127 58.1028 7.12642 58.0572 7.26076 58.0572C7.39991 58.0572 7.51266 58.1052 7.59902 58.2011C7.68539 58.2923 7.72857 58.4074 7.72857 58.5466C7.72857 58.5946 7.72377 58.6426 7.71417 58.6905C7.70938 58.7337 7.69738 58.7865 7.67819 58.8489C7.6638 58.9064 7.63981 58.9784 7.60622 59.0648L7.26796 60.0652H6.81455ZM10.3831 59.0576C9.98969 59.0576 9.63704 58.9568 9.32517 58.7553C9.0181 58.5538 8.7734 58.2611 8.59108 57.8773C8.41355 57.4934 8.32479 57.028 8.32479 56.4811C8.32479 55.9341 8.41355 55.4687 8.59108 55.0848C8.7734 54.701 9.0181 54.4083 9.32517 54.2068C9.63704 54.0053 9.98969 53.9045 10.3831 53.9045C10.7718 53.9045 11.122 54.0053 11.4339 54.2068C11.7458 54.4083 11.9904 54.701 12.168 55.0848C12.3455 55.4687 12.4343 55.9341 12.4343 56.4811C12.4343 57.028 12.3455 57.4934 12.168 57.8773C11.9904 58.2611 11.7458 58.5538 11.4339 58.7553C11.122 58.9568 10.7718 59.0576 10.3831 59.0576ZM10.3831 58.417C10.647 58.417 10.8773 58.3451 11.074 58.2011C11.2756 58.0572 11.4315 57.8413 11.5418 57.5534C11.657 57.2655 11.7146 56.9081 11.7146 56.4811C11.7146 56.054 11.657 55.6966 11.5418 55.4087C11.4315 55.1208 11.2756 54.9049 11.074 54.761C10.8773 54.617 10.647 54.5451 10.3831 54.5451C10.1192 54.5451 9.88653 54.617 9.68502 54.761C9.4835 54.9049 9.32517 55.1208 9.21002 55.4087C9.09967 55.6966 9.04449 56.054 9.04449 56.4811C9.04449 56.9081 9.09967 57.2655 9.21002 57.5534C9.32517 57.8413 9.4835 58.0572 9.68502 58.2011C9.88653 58.3451 10.1192 58.417 10.3831 58.417ZM15.1834 59.0576C14.79 59.0576 14.4374 58.9568 14.1255 58.7553C13.8184 58.5538 13.5737 58.2611 13.3914 57.8773C13.2139 57.4934 13.1251 57.028 13.1251 56.4811C13.1251 55.9341 13.2139 55.4687 13.3914 55.0848C13.5737 54.701 13.8184 54.4083 14.1255 54.2068C14.4374 54.0053 14.79 53.9045 15.1834 53.9045C15.5721 53.9045 15.9223 54.0053 16.2342 54.2068C16.5461 54.4083 16.7908 54.701 16.9683 55.0848C17.1458 55.4687 17.2346 55.9341 17.2346 56.4811C17.2346 57.028 17.1458 57.4934 16.9683 57.8773C16.7908 58.2611 16.5461 58.5538 16.2342 58.7553C15.9223 58.9568 15.5721 59.0576 15.1834 59.0576ZM15.1834 58.417C15.4473 58.417 15.6776 58.3451 15.8744 58.2011C16.0759 58.0572 16.2318 57.8413 16.3422 57.5534C16.4573 57.2655 16.5149 56.9081 16.5149 56.4811C16.5149 56.054 16.4573 55.6966 16.3422 55.4087C16.2318 55.1208 16.0759 54.9049 15.8744 54.761C15.6776 54.617 15.4473 54.5451 15.1834 54.5451C14.9196 54.5451 14.6869 54.617 14.4853 54.761C14.2838 54.9049 14.1255 55.1208 14.0103 55.4087C13.9 55.6966 13.8448 56.054 13.8448 56.4811C13.8448 56.9081 13.9 57.2655 14.0103 57.5534C14.1255 57.8413 14.2838 58.0572 14.4853 58.2011C14.6869 58.3451 14.9196 58.417 15.1834 58.417ZM19.9838 59.0576C19.5903 59.0576 19.2377 58.9568 18.9258 58.7553C18.6187 58.5538 18.374 58.2611 18.1917 57.8773C18.0142 57.4934 17.9254 57.028 17.9254 56.4811C17.9254 55.9341 18.0142 55.4687 18.1917 55.0848C18.374 54.701 18.6187 54.4083 18.9258 54.2068C19.2377 54.0053 19.5903 53.9045 19.9838 53.9045C20.3724 53.9045 20.7227 54.0053 21.0345 54.2068C21.3464 54.4083 21.5911 54.701 21.7686 55.0848C21.9461 55.4687 22.0349 55.9341 22.0349 56.4811C22.0349 57.028 21.9461 57.4934 21.7686 57.8773C21.5911 58.2611 21.3464 58.5538 21.0345 58.7553C20.7227 58.9568 20.3724 59.0576 19.9838 59.0576ZM19.9838 58.417C20.2477 58.417 20.478 58.3451 20.6747 58.2011C20.8762 58.0572 21.0321 57.8413 21.1425 57.5534C21.2576 57.2655 21.3152 56.9081 21.3152 56.4811C21.3152 56.054 21.2576 55.6966 21.1425 55.4087C21.0321 55.1208 20.8762 54.9049 20.6747 54.761C20.478 54.617 20.2477 54.5451 19.9838 54.5451C19.7199 54.5451 19.4872 54.617 19.2857 54.761C19.0841 54.9049 18.9258 55.1208 18.8107 55.4087C18.7003 55.6966 18.6451 56.054 18.6451 56.4811C18.6451 56.9081 18.7003 57.2655 18.8107 57.5534C18.9258 57.8413 19.0841 58.0572 19.2857 58.2011C19.4872 58.3451 19.7199 58.417 19.9838 58.417ZM23.5966 58.0788L23.611 57.1936L25.8061 55.1856H26.6409L24.9568 56.8409L24.5826 57.1576L23.5966 58.0788ZM23.0352 59V53.6598H23.7261V59H23.0352ZM25.95 59L24.453 57.1432L24.8992 56.589L26.7992 59H25.95Z" fill="#3E4954"/>
<path d="M33.2483 207.324L36.0446 205.056C39.0906 202.586 48.5112 202.262 52.812 204.48L61.0091 208.707C62.5159 209.484 65.8744 209.268 66.5305 208.351C67.1695 207.459 70.3983 207.222 71.965 207.953L78.2133 210.867C82.2927 212.77 90.6936 212.17 92.4236 209.853L105.067 192.915C105.458 192.391 107.591 192.461 107.709 193.002C107.826 193.535 109.921 193.614 110.343 193.1L131.353 167.533C133.573 164.831 144.07 164.656 146.982 167.272L154.081 173.648C154.967 174.444 158.193 174.348 158.7 173.511C159.221 172.649 162.581 172.583 163.364 173.418L169.905 180.395C171.837 182.456 179.188 183.046 183.394 181.478L195.896 176.816C199.122 175.613 204.802 176.297 205.342 177.954C206.048 180.119 214.586 180.336 216.141 178.229L236.334 150.875C237.046 149.91 240.954 150.01 241.279 151C241.624 152.053 245.874 152.07 246.283 151.02L249.129 143.71C249.933 141.646 258.166 141.557 259.317 143.599L277.874 176.531C278.473 177.593 282.736 177.569 283.24 176.5C283.703 175.515 287.506 175.384 288.485 176.319L298.959 186.318C302.819 190.003 317.806 189.487 319.635 185.606L320.323 184.147C322.545 179.432 341.61 179.415 344.054 184.116C346.281 188.4 347.844 191.161 347.844 190.488C347.844 188.731 352.964 181.46 355.524 178.044L367.505 163.526C369.051 161.652 374.422 160.54 379.729 160.994C383.379 161.307 386.261 162.308 387.244 163.605V163.605C388.481 165.237 390.39 166.221 392.437 166.28L401.288 166.54C405.301 166.657 408.897 169.049 410.557 172.704V172.704C411.077 173.85 413.237 174.814 416.248 175.244C421.683 176.021 427.739 174.814 428.76 172.75L441.521 146.939C444.081 141.237 449.201 129.101 449.201 126.168C449.201 125.051 450.744 129.596 452.949 136.669C454.524 141.722 475.322 141.713 476.75 136.654L477.621 133.57C478.806 129.372 495.503 129.012 498.087 133.129L508.456 149.653C509.131 150.728 513.49 150.634 513.799 149.537C514.125 148.384 518.801 148.368 519.189 149.518L537.691 204.32C538.434 206.52 547.399 206.461 547.914 204.252L550.754 192.081C551.013 190.972 555.551 190.983 555.769 192.093C555.979 193.162 560.294 193.229 560.762 192.17" stroke="#E11660" stroke-width="1.02814"/>
<path d="M41.3334 6V1.68182H42.1354V6H41.3334ZM47.3871 2.66883C47.6503 2.66883 47.8827 2.72024 48.0842 2.82305C48.2898 2.92586 48.4502 3.0842 48.5654 3.29805C48.6805 3.50779 48.7381 3.77922 48.7381 4.11234V6H47.967V4.21104C47.967 3.91905 47.9032 3.70108 47.7757 3.55714C47.6483 3.4132 47.4652 3.34123 47.2267 3.34123C47.0581 3.34123 46.908 3.37825 46.7764 3.45227C46.6489 3.5263 46.5481 3.63528 46.4741 3.77922C46.4042 3.92316 46.3693 4.10617 46.3693 4.32825V6H45.5981V4.21104C45.5981 3.91905 45.5344 3.70108 45.4069 3.55714C45.2794 3.4132 45.0964 3.34123 44.8579 3.34123C44.6893 3.34123 44.5392 3.37825 44.4076 3.45227C44.2801 3.5263 44.1793 3.63528 44.1053 3.77922C44.0354 3.92316 44.0004 4.10617 44.0004 4.32825V6H43.2293V2.70584H43.9634V3.58182L43.8339 3.32273C43.9449 3.10887 44.1053 2.94643 44.315 2.83539C44.5289 2.72435 44.7715 2.66883 45.043 2.66883C45.3514 2.66883 45.6187 2.74491 45.8449 2.89708C46.0752 3.04924 46.2274 3.27954 46.3014 3.58799L45.9991 3.48312C46.106 3.23636 46.2829 3.03896 46.5296 2.89091C46.7764 2.74286 47.0622 2.66883 47.3871 2.66883ZM51.5494 6.04318C51.2821 6.04318 51.0374 5.98149 50.8153 5.85812C50.5974 5.73474 50.4226 5.54968 50.291 5.30292C50.1635 5.05206 50.0998 4.73539 50.0998 4.35292C50.0998 3.96634 50.1614 3.64967 50.2848 3.40292C50.4123 3.15617 50.585 2.97316 50.803 2.85389C51.021 2.73052 51.2698 2.66883 51.5494 2.66883C51.8743 2.66883 52.1601 2.73874 52.4069 2.87857C52.6578 3.0184 52.8552 3.21374 52.9991 3.46461C53.1472 3.71548 53.2212 4.01158 53.2212 4.35292C53.2212 4.69426 53.1472 4.99242 52.9991 5.2474C52.8552 5.49827 52.6578 5.69361 52.4069 5.83344C52.1601 5.97327 51.8743 6.04318 51.5494 6.04318ZM49.7235 7.19675V2.70584H50.4575V3.48312L50.4329 4.35909L50.4946 5.23506V7.19675H49.7235ZM51.4631 5.38312C51.6481 5.38312 51.8126 5.34199 51.9566 5.25974C52.1046 5.17749 52.2218 5.05822 52.3082 4.90195C52.3946 4.74567 52.4377 4.56266 52.4377 4.35292C52.4377 4.13907 52.3946 3.95606 52.3082 3.8039C52.2218 3.64762 52.1046 3.52835 51.9566 3.4461C51.8126 3.36385 51.6481 3.32273 51.4631 3.32273C51.278 3.32273 51.1114 3.36385 50.9634 3.4461C50.8153 3.52835 50.6981 3.64762 50.6118 3.8039C50.5254 3.95606 50.4822 4.13907 50.4822 4.35292C50.4822 4.56266 50.5254 4.74567 50.6118 4.90195C50.6981 5.05822 50.8153 5.17749 50.9634 5.25974C51.1114 5.34199 51.278 5.38312 51.4631 5.38312ZM53.9525 6V2.70584H54.6866V3.61266L54.6002 3.3474C54.6989 3.12532 54.8531 2.95671 55.0629 2.84156C55.2767 2.72641 55.542 2.66883 55.8587 2.66883V3.40292C55.8257 3.3947 55.7949 3.39058 55.7661 3.39058C55.7373 3.38647 55.7085 3.38441 55.6798 3.38441C55.3878 3.38441 55.1554 3.47078 54.9827 3.64351C54.8099 3.81212 54.7236 4.06504 54.7236 4.40227V6H53.9525ZM58.031 6.04318C57.665 6.04318 57.3442 5.97121 57.0687 5.82727C56.7973 5.67922 56.5855 5.47771 56.4333 5.22273C56.2853 4.96775 56.2112 4.67781 56.2112 4.35292C56.2112 4.02392 56.2832 3.73398 56.4271 3.48312C56.5752 3.22814 56.7767 3.02868 57.0317 2.88474C57.2908 2.7408 57.5848 2.66883 57.9138 2.66883C58.2346 2.66883 58.5204 2.73874 58.7713 2.87857C59.0222 3.0184 59.2196 3.2158 59.3635 3.47078C59.5075 3.72576 59.5794 4.02597 59.5794 4.37143C59.5794 4.40433 59.5774 4.44134 59.5733 4.48247C59.5733 4.52359 59.5712 4.56266 59.5671 4.59967H56.822V4.08766H59.1599L58.8577 4.24805C58.8618 4.05887 58.8227 3.89232 58.7405 3.74838C58.6582 3.60444 58.5451 3.49134 58.4012 3.40909C58.2613 3.32684 58.0989 3.28571 57.9138 3.28571C57.7247 3.28571 57.5581 3.32684 57.4142 3.40909C57.2743 3.49134 57.1633 3.60649 57.081 3.75454C57.0029 3.89848 56.9638 4.06916 56.9638 4.26656V4.38993C56.9638 4.58734 57.0091 4.76212 57.0995 4.91429C57.19 5.06645 57.3175 5.18366 57.482 5.26591C57.6465 5.34816 57.8357 5.38929 58.0495 5.38929C58.2346 5.38929 58.4012 5.3605 58.5492 5.30292C58.6973 5.24535 58.8289 5.15487 58.944 5.03149L59.3573 5.50649C59.2093 5.67922 59.0222 5.81288 58.796 5.90747C58.5739 5.99794 58.3189 6.04318 58.031 6.04318ZM61.338 6.04318C61.0624 6.04318 60.7972 6.00823 60.5422 5.93831C60.2913 5.86429 60.0919 5.77587 59.9438 5.67305L60.2399 5.08701C60.388 5.1816 60.5648 5.25974 60.7704 5.32143C60.9761 5.38312 61.1817 5.41396 61.3873 5.41396C61.63 5.41396 61.8047 5.38106 61.9117 5.31526C62.0227 5.24946 62.0782 5.16104 62.0782 5.05C62.0782 4.95952 62.0412 4.89167 61.9672 4.84643C61.8932 4.79708 61.7965 4.76006 61.6773 4.73539C61.558 4.71071 61.4243 4.68809 61.2763 4.66753C61.1323 4.64697 60.9863 4.62024 60.8383 4.58734C60.6944 4.55032 60.5628 4.49892 60.4435 4.43312C60.3242 4.3632 60.2276 4.27067 60.1536 4.15552C60.0795 4.04037 60.0425 3.8882 60.0425 3.69903C60.0425 3.48928 60.1021 3.30833 60.2214 3.15617C60.3407 2.99989 60.5072 2.88063 60.7211 2.79838C60.9391 2.71201 61.1961 2.66883 61.4922 2.66883C61.7143 2.66883 61.9384 2.69351 62.1646 2.74286C62.3908 2.79221 62.5779 2.86212 62.726 2.9526L62.4299 3.53864C62.2736 3.44405 62.1152 3.3803 61.9549 3.3474C61.7986 3.31039 61.6423 3.29188 61.486 3.29188C61.2516 3.29188 61.0768 3.32684 60.9617 3.39675C60.8506 3.46667 60.7951 3.55509 60.7951 3.66201C60.7951 3.76071 60.8321 3.83474 60.9062 3.88409C60.9802 3.93344 61.0768 3.97251 61.1961 4.0013C61.3154 4.03009 61.447 4.05476 61.5909 4.07532C61.7389 4.09177 61.8849 4.11851 62.0289 4.15552C62.1728 4.19253 62.3044 4.24394 62.4237 4.30974C62.5471 4.37143 62.6458 4.45985 62.7198 4.575C62.7938 4.69015 62.8308 4.84026 62.8308 5.02532C62.8308 5.23095 62.7691 5.40985 62.6458 5.56201C62.5265 5.71418 62.3558 5.83344 62.1338 5.91981C61.9117 6.00206 61.6464 6.04318 61.338 6.04318ZM64.5128 6.04318C64.2372 6.04318 63.972 6.00823 63.717 5.93831C63.4661 5.86429 63.2666 5.77587 63.1186 5.67305L63.4147 5.08701C63.5628 5.1816 63.7396 5.25974 63.9452 5.32143C64.1508 5.38312 64.3565 5.41396 64.5621 5.41396C64.8047 5.41396 64.9795 5.38106 65.0865 5.31526C65.1975 5.24946 65.253 5.16104 65.253 5.05C65.253 4.95952 65.216 4.89167 65.142 4.84643C65.0679 4.79708 64.9713 4.76006 64.852 4.73539C64.7328 4.71071 64.5991 4.68809 64.4511 4.66753C64.3071 4.64697 64.1611 4.62024 64.0131 4.58734C63.8691 4.55032 63.7375 4.49892 63.6183 4.43312C63.499 4.3632 63.4024 4.27067 63.3283 4.15552C63.2543 4.04037 63.2173 3.8882 63.2173 3.69903C63.2173 3.48928 63.2769 3.30833 63.3962 3.15617C63.5155 2.99989 63.682 2.88063 63.8959 2.79838C64.1138 2.71201 64.3709 2.66883 64.667 2.66883C64.8891 2.66883 65.1132 2.69351 65.3394 2.74286C65.5656 2.79221 65.7527 2.86212 65.9007 2.9526L65.6046 3.53864C65.4484 3.44405 65.29 3.3803 65.1296 3.3474C64.9734 3.31039 64.8171 3.29188 64.6608 3.29188C64.4264 3.29188 64.2516 3.32684 64.1365 3.39675C64.0254 3.46667 63.9699 3.55509 63.9699 3.66201C63.9699 3.76071 64.0069 3.83474 64.0809 3.88409C64.155 3.93344 64.2516 3.97251 64.3709 4.0013C64.4901 4.03009 64.6217 4.05476 64.7657 4.07532C64.9137 4.09177 65.0597 4.11851 65.2037 4.15552C65.3476 4.19253 65.4792 4.24394 65.5985 4.30974C65.7218 4.37143 65.8205 4.45985 65.8946 4.575C65.9686 4.69015 66.0056 4.84026 66.0056 5.02532C66.0056 5.23095 65.9439 5.40985 65.8205 5.56201C65.7013 5.71418 65.5306 5.83344 65.3085 5.91981C65.0865 6.00206 64.8212 6.04318 64.5128 6.04318ZM66.6697 6V2.70584H67.4408V6H66.6697ZM67.0583 2.16299C66.9144 2.16299 66.7951 2.11775 66.7005 2.02727C66.61 1.9368 66.5648 1.82781 66.5648 1.70032C66.5648 1.56872 66.61 1.45974 66.7005 1.37338C66.7951 1.2829 66.9144 1.23766 67.0583 1.23766C67.2023 1.23766 67.3195 1.28084 67.4099 1.36721C67.5045 1.44946 67.5518 1.55433 67.5518 1.68182C67.5518 1.81753 67.5066 1.93268 67.4161 2.02727C67.3256 2.11775 67.2064 2.16299 67.0583 2.16299ZM69.9334 6.04318C69.5961 6.04318 69.2959 5.97121 69.0327 5.82727C68.7695 5.67922 68.5618 5.47771 68.4097 5.22273C68.2575 4.96775 68.1814 4.67781 68.1814 4.35292C68.1814 4.02392 68.2575 3.73398 68.4097 3.48312C68.5618 3.22814 68.7695 3.02868 69.0327 2.88474C69.2959 2.7408 69.5961 2.66883 69.9334 2.66883C70.2747 2.66883 70.577 2.7408 70.8402 2.88474C71.1075 3.02868 71.3152 3.22608 71.4632 3.47695C71.6154 3.72781 71.6915 4.0198 71.6915 4.35292C71.6915 4.67781 71.6154 4.96775 71.4632 5.22273C71.3152 5.47771 71.1075 5.67922 70.8402 5.82727C70.577 5.97121 70.2747 6.04318 69.9334 6.04318ZM69.9334 5.38312C70.1226 5.38312 70.2912 5.34199 70.4392 5.25974C70.5873 5.17749 70.7024 5.05822 70.7847 4.90195C70.871 4.74567 70.9142 4.56266 70.9142 4.35292C70.9142 4.13907 70.871 3.95606 70.7847 3.8039C70.7024 3.64762 70.5873 3.52835 70.4392 3.4461C70.2912 3.36385 70.1246 3.32273 69.9395 3.32273C69.7504 3.32273 69.5817 3.36385 69.4337 3.4461C69.2898 3.52835 69.1746 3.64762 69.0882 3.8039C69.0019 3.95606 68.9587 4.13907 68.9587 4.35292C68.9587 4.56266 69.0019 4.74567 69.0882 4.90195C69.1746 5.05822 69.2898 5.17749 69.4337 5.25974C69.5817 5.34199 69.7483 5.38312 69.9334 5.38312ZM74.298 2.66883C74.5612 2.66883 74.7956 2.72024 75.0013 2.82305C75.211 2.92586 75.3755 3.0842 75.4948 3.29805C75.614 3.50779 75.6737 3.77922 75.6737 4.11234V6H74.9026V4.21104C74.9026 3.91905 74.8326 3.70108 74.6928 3.55714C74.5571 3.4132 74.3659 3.34123 74.1191 3.34123C73.9382 3.34123 73.7778 3.37825 73.6379 3.45227C73.4981 3.5263 73.3891 3.63734 73.311 3.78539C73.237 3.92933 73.2 4.11234 73.2 4.33442V6H72.4289V2.70584H73.1629V3.59416L73.0334 3.32273C73.1486 3.11299 73.3151 2.9526 73.5331 2.84156C73.7552 2.72641 74.0101 2.66883 74.298 2.66883ZM77.6697 6.04318C77.3942 6.04318 77.1289 6.00823 76.8739 5.93831C76.6231 5.86429 76.4236 5.77587 76.2756 5.67305L76.5717 5.08701C76.7197 5.1816 76.8966 5.25974 77.1022 5.32143C77.3078 5.38312 77.5134 5.41396 77.7191 5.41396C77.9617 5.41396 78.1365 5.38106 78.2434 5.31526C78.3545 5.24946 78.41 5.16104 78.41 5.05C78.41 4.95952 78.373 4.89167 78.2989 4.84643C78.2249 4.79708 78.1283 4.76006 78.009 4.73539C77.8897 4.71071 77.7561 4.68809 77.608 4.66753C77.4641 4.64697 77.3181 4.62024 77.17 4.58734C77.0261 4.55032 76.8945 4.49892 76.7752 4.43312C76.656 4.3632 76.5593 4.27067 76.4853 4.15552C76.4113 4.04037 76.3743 3.8882 76.3743 3.69903C76.3743 3.48928 76.4339 3.30833 76.5532 3.15617C76.6724 2.99989 76.839 2.88063 77.0528 2.79838C77.2708 2.71201 77.5278 2.66883 77.8239 2.66883C78.046 2.66883 78.2701 2.69351 78.4963 2.74286C78.7225 2.79221 78.9096 2.86212 79.0577 2.9526L78.7616 3.53864C78.6053 3.44405 78.447 3.3803 78.2866 3.3474C78.1303 3.31039 77.974 3.29188 77.8178 3.29188C77.5833 3.29188 77.4086 3.32684 77.2934 3.39675C77.1824 3.46667 77.1269 3.55509 77.1269 3.66201C77.1269 3.76071 77.1639 3.83474 77.2379 3.88409C77.3119 3.93344 77.4086 3.97251 77.5278 4.0013C77.6471 4.03009 77.7787 4.05476 77.9226 4.07532C78.0707 4.09177 78.2167 4.11851 78.3606 4.15552C78.5046 4.19253 78.6362 4.24394 78.7554 4.30974C78.8788 4.37143 78.9775 4.45985 79.0515 4.575C79.1256 4.69015 79.1626 4.84026 79.1626 5.02532C79.1626 5.23095 79.1009 5.40985 78.9775 5.56201C78.8582 5.71418 78.6876 5.83344 78.4655 5.91981C78.2434 6.00206 77.9782 6.04318 77.6697 6.04318Z" fill="#575757"/>
</svg>
