<svg width="82" height="84" viewBox="0 0 82 84" fill="none" xmlns="http://www.w3.org/2000/svg">
<rect width="82" height="83.1233" rx="5.89041" fill="#F4F6FE"/>
<path d="M48.1042 64.7066C48.1042 65.121 47.9396 65.5185 47.6465 65.8115C47.3535 66.1045 46.9561 66.2691 46.5417 66.2691H39.25C38.8356 66.2691 38.4382 66.1045 38.1451 65.8115C37.8521 65.5185 37.6875 65.121 37.6875 64.7066V52.2066C37.6875 51.7922 37.8521 51.3948 38.1451 51.1018C38.4382 50.8088 38.8356 50.6441 39.25 50.6441C39.6644 50.6441 40.0618 50.8088 40.3549 51.1018C40.6479 51.3948 40.8125 51.7922 40.8125 52.2066V63.1441H46.5417C46.9561 63.1441 47.3535 63.3088 47.6465 63.6018C47.9396 63.8948 48.1042 64.2922 48.1042 64.7066ZM31.8542 50.9566C31.6914 50.8301 31.5047 50.7377 31.3054 50.6848C31.1061 50.6319 30.8982 50.6197 30.6941 50.6488C30.49 50.678 30.2938 50.748 30.1173 50.8545C29.9408 50.9611 29.7875 51.1021 29.6667 51.2691L26.2292 55.8525L22.7917 51.2691C22.6686 51.105 22.5143 50.9667 22.3378 50.8621C22.1612 50.7576 21.9658 50.6889 21.7626 50.6598C21.5595 50.6308 21.3527 50.6421 21.1539 50.693C20.9551 50.7439 20.7683 50.8335 20.6042 50.9566C20.44 51.0798 20.3017 51.234 20.1972 51.4106C20.0926 51.5871 20.0239 51.7825 19.9949 51.9857C19.9659 52.1888 19.9771 52.3956 20.0281 52.5944C20.079 52.7932 20.1686 52.98 20.2917 53.1441L24.276 58.4566L20.2917 63.7691C20.1686 63.9333 20.079 64.1201 20.0281 64.3189C19.9771 64.5176 19.9659 64.7245 19.9949 64.9276C20.0239 65.1307 20.0926 65.3262 20.1972 65.5027C20.3017 65.6793 20.44 65.8335 20.6042 65.9566C20.7683 66.0798 20.9551 66.1693 21.1539 66.2203C21.3527 66.2712 21.5595 66.2825 21.7626 66.2534C21.9658 66.2244 22.1612 66.1557 22.3378 66.0511C22.5143 65.9466 22.6686 65.8083 22.7917 65.6441L26.2292 61.0608L29.6667 65.6441C29.9153 65.9757 30.2855 66.1948 30.6957 66.2534C31.1059 66.312 31.5226 66.2053 31.8542 65.9566C32.1857 65.708 32.4049 65.3378 32.4635 64.9276C32.5221 64.5174 32.4153 64.1007 32.1667 63.7691L28.1823 58.4566L32.1667 53.1441C32.2932 52.9813 32.3856 52.7947 32.4385 52.5954C32.4914 52.3961 32.5036 52.1882 32.4745 51.9841C32.4453 51.78 32.3753 51.5838 32.2688 51.4073C32.1622 51.2308 32.0212 51.0775 31.8542 50.9566ZM58.3125 56.816C56.2813 56.2952 55.3958 55.9566 55.3958 55.3316C55.3958 53.7431 56.8542 53.5087 57.7396 53.5087C58.7846 53.5169 59.8022 53.8439 60.6563 54.4462C60.978 54.6593 61.3672 54.7457 61.7489 54.6889C62.1306 54.6321 62.4777 54.436 62.7235 54.1385C62.9692 53.841 63.0962 53.4631 63.08 53.0776C63.0637 52.692 62.9054 52.3261 62.6354 52.0504C61.24 50.9551 59.5134 50.3673 57.7396 50.3837C54.5104 50.3837 52.2708 52.415 52.2708 55.3316C52.2708 58.2483 55.2917 59.2639 57.5052 59.8368C59.7188 60.4098 60.6042 60.8004 60.6042 61.5816C60.6042 62.3629 60.6042 63.4046 57.7396 63.4046C56.6954 63.3915 55.6792 63.0649 54.8229 62.4671C54.6697 62.3105 54.4852 62.1879 54.2815 62.1073C54.0778 62.0266 53.8594 61.9897 53.6405 61.999C53.4216 62.0082 53.2071 62.0634 53.0109 62.1609C52.8148 62.2584 52.6413 62.396 52.5017 62.5649C52.3622 62.7339 52.2597 62.9302 52.201 63.1413C52.1423 63.3523 52.1286 63.5734 52.1609 63.7901C52.1931 64.0068 52.2706 64.2143 52.3882 64.3991C52.5059 64.5839 52.6611 64.7419 52.8438 64.8629C54.2392 65.9582 55.9658 66.5459 57.7396 66.5296C61.4896 66.5296 63.7292 64.6806 63.7292 61.5816C63.7292 58.4827 60.474 57.3889 58.3125 56.816ZM63.7292 31.4254V41.79C63.7292 42.2044 63.5646 42.6018 63.2715 42.8948C62.9785 43.1879 62.5811 43.3525 62.1667 43.3525C61.7523 43.3525 61.3548 43.1879 61.0618 42.8948C60.7688 42.6018 60.6042 42.2044 60.6042 41.79V32.9358H47.5833C47.1689 32.9358 46.7715 32.7712 46.4785 32.4782C46.1855 32.1851 46.0208 31.7877 46.0208 31.3733V18.3525H22.5833C22.4452 18.3525 22.3127 18.4073 22.215 18.505C22.1174 18.6027 22.0625 18.7352 22.0625 18.8733V41.79C22.0625 42.2044 21.8979 42.6018 21.6049 42.8948C21.3118 43.1879 20.9144 43.3525 20.5 43.3525C20.0856 43.3525 19.6882 43.1879 19.3951 42.8948C19.1021 42.6018 18.9375 42.2044 18.9375 41.79V18.8733C18.9375 17.9064 19.3216 16.979 20.0053 16.2953C20.6891 15.6116 21.6164 15.2275 22.5833 15.2275H47.5833C47.7884 15.2243 47.9917 15.2644 48.1802 15.3452C48.3687 15.426 48.538 15.5456 48.6771 15.6962L63.2604 30.2535C63.4093 30.3994 63.5275 30.5737 63.608 30.766C63.6885 30.9583 63.7297 31.1648 63.7292 31.3733V31.4254ZM49.1458 29.8108H58.3906L49.1458 20.566V29.8108Z" fill="#2EDC80"/>
</svg>
