<svg width="83" height="84" viewBox="0 0 83 84" fill="none" xmlns="http://www.w3.org/2000/svg">
<rect width="82.5541" height="83.6849" rx="5.65439" fill="#F4F6FE"/>
<path d="M58.6017 12.8596L70.2717 25.0246V71.2851H26.677V71.4361H70.4206V25.1777L58.6017 12.8596Z" fill="#F4F6FE"/>
<path d="M58.4567 12.7086H26.5278V71.2851H70.2714V25.0267L58.4546 12.7086" fill="#F4F4F4"/>
<path d="M26.2071 15.8547H12.8047V30.1737H54.9626V15.8547H26.2071Z" fill="#7A7B7C"/>
<path d="M55.1868 29.9304H13.0771V15.6009H55.1868V29.9304Z" fill="#DD2025"/>
<path d="M27.0397 18.0234H24.2983V28.091H26.4545V24.6953L26.9306 24.7226C27.3932 24.7146 27.8515 24.6317 28.2876 24.4772C28.67 24.3456 29.0217 24.138 29.3216 23.8668C29.6268 23.6085 29.8674 23.2824 30.0243 22.9146C30.2346 22.3032 30.3098 21.6534 30.2445 21.0101C30.2314 20.5506 30.1508 20.0955 30.0054 19.6594C29.873 19.3446 29.6765 19.0608 29.4284 18.8261C29.1803 18.5914 28.8861 18.4109 28.5645 18.2961C28.2864 18.1954 27.999 18.1223 27.7066 18.078C27.4852 18.0438 27.2616 18.0256 27.0376 18.0234H27.0397ZM26.6411 22.8349H26.4545V19.7307H26.8593C27.0379 19.7178 27.2172 19.7453 27.3838 19.811C27.5505 19.8767 27.7002 19.979 27.822 20.1103C28.0743 20.4481 28.2092 20.8591 28.2058 21.2807C28.2058 21.7967 28.2058 22.2644 27.7402 22.5937C27.4047 22.7782 27.0229 22.8612 26.6411 22.8328V22.8349ZM34.3407 17.9962C34.1079 17.9962 33.8814 18.0129 33.722 18.0192L33.2228 18.0318H31.5868V28.0994H33.5123C34.2481 28.1196 34.9807 27.9948 35.6684 27.7323C36.2219 27.5128 36.7121 27.1589 37.0946 26.7025C37.4666 26.242 37.7336 25.7059 37.877 25.1315C38.0418 24.4811 38.1221 23.8121 38.1161 23.1411C38.1568 22.3486 38.0954 21.5542 37.9336 20.7773C37.78 20.2055 37.4924 19.6785 37.0946 19.2399C36.7825 18.8858 36.4005 18.6002 35.9725 18.401C35.605 18.2309 35.2184 18.1056 34.821 18.0276C34.663 18.0015 34.503 17.9896 34.3428 17.992L34.3407 17.9962ZM33.9611 26.2495H33.7514V19.823H33.7786C34.211 19.7733 34.6485 19.8513 35.0371 20.0474C35.3216 20.2746 35.5535 20.5609 35.7166 20.8864C35.8927 21.229 35.9942 21.605 36.0145 21.9896C36.0333 22.4511 36.0145 22.8286 36.0145 23.1411C36.023 23.5011 35.9999 23.8611 35.9453 24.2171C35.8806 24.5825 35.7611 24.9361 35.5908 25.2658C35.398 25.5723 35.1376 25.8306 34.8294 26.0209C34.5707 26.1882 34.2642 26.2663 33.9569 26.2432L33.9611 26.2495ZM44.6118 18.0318H39.515V28.0994H41.6712V24.1059H44.3978V22.235H41.6712V19.9027H44.6076V18.0318" fill="#464648"/>
<path d="M53.7377 50.9968C53.7377 50.9968 60.4243 49.7845 60.4243 52.0686C60.4243 54.3527 56.2819 53.4235 53.7377 50.9968ZM48.7941 51.1709C47.7318 51.4056 46.6965 51.7493 45.7046 52.1965L46.5436 50.3089C47.3826 48.4212 48.253 45.8477 48.253 45.8477C49.2541 47.5326 50.4189 49.1147 51.7305 50.571C50.7414 50.7185 49.7611 50.9202 48.7941 51.1751V51.1709ZM46.1472 37.5377C46.1472 35.5473 46.7911 35.0041 47.2924 35.0041C47.7937 35.0041 48.3579 35.2453 48.3767 36.9735C48.2134 38.7114 47.8495 40.4244 47.2924 42.0786C46.5292 40.6898 46.1342 39.1287 46.1451 37.544L46.1472 37.5377ZM36.3963 59.5941C34.3451 58.3671 40.6981 54.5897 41.8496 54.468C41.8433 54.4701 38.5441 60.8777 36.3963 59.5941ZM62.3769 52.3391C62.356 52.1294 62.1672 49.8076 58.0353 49.9062C56.3131 49.8784 54.5917 49.9998 52.8904 50.269C51.2424 48.6087 49.8232 46.736 48.6704 44.7004C49.3966 42.6018 49.8362 40.4147 49.9771 38.1984C49.9162 35.6815 49.3143 34.2385 47.3847 34.2595C45.455 34.2804 45.174 35.9689 45.4278 38.4816C45.6764 40.1701 46.1453 41.8187 46.8226 43.3853C46.8226 43.3853 45.9312 46.1602 44.7524 48.9204C43.5737 51.6806 42.7683 53.1278 42.7683 53.1278C40.7185 53.795 38.7889 54.7864 37.0528 56.0641C35.3246 57.6729 34.6219 58.9082 35.5322 60.1436C36.3166 61.2091 39.0621 61.4503 41.5161 58.235C42.82 56.5743 44.0112 54.8281 45.0817 53.0082C45.0817 53.0082 48.8235 51.9826 49.9875 51.7015C51.1516 51.4205 52.559 51.1982 52.559 51.1982C52.559 51.1982 55.9757 54.6358 59.2707 54.5142C62.5657 54.3925 62.4063 52.5447 62.3853 52.3433" fill="#DD2025"/>
<path d="M58.2954 12.8701V25.1882H70.1101L58.2954 12.8701Z" fill="#F4F6FE"/>
<path d="M58.4568 12.7086V25.0267H70.2715L58.4568 12.7086Z" fill="#F4F4F4"/>
<path d="M26.878 17.8619H24.1367V27.9295H26.3012V24.5359L26.7795 24.5631C27.2421 24.5552 27.7004 24.4723 28.1365 24.3177C28.5188 24.1862 28.8706 23.9786 29.1705 23.7074C29.4734 23.4483 29.7118 23.1223 29.8668 22.7552C30.0772 22.1438 30.1523 21.494 30.0871 20.8507C30.074 20.3912 29.9934 19.9361 29.848 19.5C29.7156 19.1852 29.5191 18.9014 29.271 18.6667C29.0229 18.432 28.7287 18.2515 28.407 18.1367C28.1277 18.035 27.8389 17.9612 27.545 17.9164C27.3236 17.8823 27.1 17.8641 26.8759 17.8619H26.878ZM26.4795 22.6734H26.2929V19.5692H26.6998C26.8784 19.5563 27.0577 19.5837 27.2243 19.6495C27.3909 19.7152 27.5407 19.8175 27.6625 19.9488C27.9148 20.2865 28.0496 20.6976 28.0463 21.1192C28.0463 21.6352 28.0463 22.1029 27.5807 22.4322C27.2452 22.6167 26.8634 22.6997 26.4816 22.6713L26.4795 22.6734ZM34.1791 17.8346C33.9463 17.8346 33.7198 17.8514 33.5604 17.8577L33.0675 17.8703H31.4315V27.9379H33.3569C34.0928 27.958 34.8254 27.8333 35.5131 27.5708C36.0666 27.3513 36.5568 26.9973 36.9393 26.541C37.3113 26.0805 37.5783 25.5444 37.7216 24.97C37.8864 24.3196 37.9668 23.6506 37.9607 22.9796C38.0014 22.1871 37.9401 21.3927 37.7783 20.6158C37.6247 20.044 37.3371 19.517 36.9393 19.0784C36.6272 18.7243 36.2451 18.4386 35.8172 18.2394C35.4497 18.0694 35.0631 17.944 34.6657 17.8661C34.5077 17.84 34.3477 17.8281 34.1875 17.8305L34.1791 17.8346ZM33.8058 26.088H33.596V19.6615H33.6233C34.0557 19.6117 34.4932 19.6898 34.8818 19.8859C35.1663 20.1131 35.3981 20.3994 35.5613 20.7249C35.7374 21.0675 35.8389 21.4435 35.8591 21.8281C35.878 22.2895 35.8591 22.6671 35.8591 22.9796C35.8677 23.3396 35.8445 23.6996 35.7899 24.0556C35.7253 24.421 35.6058 24.7746 35.4355 25.1043C35.2427 25.4108 34.9822 25.6691 34.6741 25.8593C34.4153 26.0267 34.1089 26.1048 33.8016 26.0817L33.8058 26.088ZM44.4501 17.8703H39.3534V27.9379H41.5096V23.9444H44.2362V22.0735H41.5096V19.7412H44.4459V17.8703" fill="white"/>
</svg>
